<svg width="24" height="25" viewBox="0 0 24 25" fill="none" xmlns="http://www.w3.org/2000/svg">
<path d="M12.1637 22.4881C6.74286 22.4881 2.34863 18.0939 2.34863 12.673C2.34863 7.25214 6.74286 2.85791 12.1637 2.85791C17.5846 2.85791 21.9789 7.25214 21.9789 12.673C21.973 18.091 17.5817 22.4823 12.1637 22.4881ZM7.96975 15.4085C7.84314 15.4085 7.7175 15.4242 7.59383 15.4537L7.4466 15.4939L6.86359 16.4921C6.75709 16.6697 6.7229 16.8815 6.76806 17.0836C6.81323 17.2857 6.93431 17.4628 7.10629 17.5782C7.27827 17.6936 7.488 17.7385 7.69217 17.7037C7.89633 17.6689 8.07933 17.557 8.20335 17.3912L8.2642 17.2999L9.0396 15.9542C8.91393 15.7861 8.75107 15.6494 8.56377 15.5547C8.37646 15.4601 8.1698 15.41 7.95994 15.4085H7.96975ZM13.3524 9.39478C13.047 9.68165 12.8445 10.0611 12.7762 10.4744C12.6668 11.0444 12.7716 11.6348 13.0707 12.1322L16.0545 17.3009C16.1583 17.4756 16.3239 17.605 16.5185 17.6635C16.7132 17.722 16.9227 17.7054 17.1057 17.6169C17.2881 17.5269 17.4299 17.3714 17.5027 17.1814C17.5754 16.9915 17.5739 16.7811 17.4983 16.5922L17.4502 16.4941L16.665 15.1288H17.833C18.0375 15.1271 18.2338 15.0478 18.3822 14.907C18.5306 14.7662 18.62 14.5744 18.6325 14.3702C18.6449 14.166 18.5795 13.9647 18.4493 13.807C18.3191 13.6492 18.1339 13.5466 17.9311 13.5201L17.833 13.5142H15.7325L13.5791 9.78444L13.3543 9.39183L13.3524 9.39478ZM6.52987 13.5073C6.4244 13.5076 6.32001 13.5286 6.22269 13.5693C6.12537 13.61 6.03703 13.6694 5.96272 13.7443C5.88842 13.8191 5.82961 13.9079 5.78966 14.0055C5.74972 14.1031 5.72942 14.2077 5.72994 14.3131C5.72994 14.7195 6.03225 15.063 6.43565 15.115L6.5338 15.1199H13.8755C13.9568 14.9568 13.9976 14.7765 13.9947 14.5943C13.9918 14.412 13.9452 14.2331 13.8588 14.0727C13.7853 13.9223 13.6758 13.7925 13.54 13.6947C13.4042 13.5969 13.2464 13.5342 13.0805 13.5122L12.9617 13.5063H10.4579L13.9207 7.51028C14.0273 7.3244 14.0562 7.10393 14.0011 6.89683C13.9619 6.7515 13.883 6.61999 13.7731 6.5171C13.6632 6.41422 13.5268 6.34404 13.3792 6.31446C13.2316 6.28488 13.0787 6.29707 12.9377 6.34967C12.7966 6.40227 12.6731 6.49319 12.5809 6.61219L12.52 6.70249L12.1637 7.32477L11.8114 6.70249C11.7075 6.52753 11.5418 6.39795 11.3469 6.33941C11.152 6.28088 10.9423 6.29767 10.7592 6.38644C10.5768 6.47679 10.4352 6.63249 10.3624 6.82255C10.2897 7.01262 10.2912 7.22311 10.3666 7.41212L10.4147 7.51028L11.2294 8.94328L8.59399 13.5073H6.52987Z" fill="white"/>
</svg>
