<svg width="27" height="24" viewBox="0 0 27 24" fill="none" xmlns="http://www.w3.org/2000/svg">
<path d="M14.3402 11.43L17.5257 8.60648L7.23669 3.48084C6.55478 3.15428 5.91596 3.10844 5.35578 3.46556L14.3402 11.43ZM18.0686 14.7357L21.3802 13.0847C22.0265 12.7639 22.3809 12.3094 22.3809 11.8052C22.3809 11.302 22.0265 10.8466 21.3812 10.5257L18.3832 9.0333L15.0081 12.0239L18.0686 14.7357ZM4.80206 4.15974C4.73312 4.34784 4.69434 4.55791 4.69434 4.78803V18.8291C4.69434 19.1929 4.78483 19.5061 4.94857 19.7553L13.6712 12.0229L4.80206 4.15974ZM14.3402 12.615L5.66603 20.3044C5.83193 20.3607 6.01076 20.3903 6.19928 20.3903C6.53539 20.3903 6.8855 20.3025 7.24208 20.1268L17.2122 15.1644L14.3402 12.615Z" fill="white"/>
</svg>
