<svg width="327" height="359" viewBox="0 0 327 359" fill="none" xmlns="http://www.w3.org/2000/svg">
<path d="M157.701 359C228.611 359 286.095 347.794 286.095 333.97C286.095 320.147 228.611 308.94 157.701 308.94C86.7914 308.94 29.3076 320.147 29.3076 333.97C29.3076 347.794 86.7914 359 157.701 359Z" fill="#37C876"/>
<path opacity="0.5" d="M157.701 359C228.611 359 286.095 347.794 286.095 333.97C286.095 320.147 228.611 308.94 157.701 308.94C86.7914 308.94 29.3076 320.147 29.3076 333.97C29.3076 347.794 86.7914 359 157.701 359Z" fill="white"/>
<path d="M294.004 1.00037H201.429C198.267 1.00037 195.703 3.4994 195.703 6.58211V106.063C195.703 109.146 198.267 111.645 201.429 111.645H294.004C297.167 111.645 299.73 109.146 299.73 106.063V6.58211C299.73 3.4994 297.167 1.00037 294.004 1.00037Z" fill="white" stroke="#263238" stroke-linecap="round" stroke-linejoin="round"/>
<path d="M201.429 1.00007H293.995C295.506 1.00007 296.955 1.58522 298.024 2.62679C299.092 3.66836 299.693 5.08103 299.693 6.55404V12.3487H195.703V6.58182C195.699 5.84778 195.845 5.1203 196.131 4.44143C196.418 3.76256 196.839 3.14577 197.372 2.62672C197.904 2.10767 198.537 1.69666 199.233 1.41746C199.93 1.13825 200.676 0.99639 201.429 1.00007Z" fill="#263238" stroke="#263238" stroke-linecap="round" stroke-linejoin="round"/>
<path d="M201.372 60.0758H243.23" stroke="#263238" stroke-linecap="round" stroke-linejoin="round"/>
<path d="M201.372 65.3429H243.23" stroke="#263238" stroke-linecap="round" stroke-linejoin="round"/>
<path d="M201.372 70.61H243.23" stroke="#263238" stroke-linecap="round" stroke-linejoin="round"/>
<path d="M201.372 75.8767H243.23" stroke="#263238" stroke-linecap="round" stroke-linejoin="round"/>
<path d="M201.372 81.1438H243.23" stroke="#263238" stroke-linecap="round" stroke-linejoin="round"/>
<path d="M201.372 86.42H243.23" stroke="#263238" stroke-linecap="round" stroke-linejoin="round"/>
<path d="M201.372 91.6871H243.23" stroke="#263238" stroke-linecap="round" stroke-linejoin="round"/>
<path d="M201.372 96.9542H243.23" stroke="#263238" stroke-linecap="round" stroke-linejoin="round"/>
<path d="M201.372 102.221H243.23" stroke="#263238" stroke-linecap="round" stroke-linejoin="round"/>
<path d="M250.589 60.0758H292.447" stroke="#263238" stroke-linecap="round" stroke-linejoin="round"/>
<path d="M250.589 65.3429H292.447" stroke="#263238" stroke-linecap="round" stroke-linejoin="round"/>
<path d="M250.589 70.61H292.447" stroke="#263238" stroke-linecap="round" stroke-linejoin="round"/>
<path d="M250.589 75.8767H292.447" stroke="#263238" stroke-linecap="round" stroke-linejoin="round"/>
<path d="M250.589 81.1438H292.447" stroke="#263238" stroke-linecap="round" stroke-linejoin="round"/>
<path d="M250.589 86.42H292.447" stroke="#263238" stroke-linecap="round" stroke-linejoin="round"/>
<path d="M250.589 91.6871H292.447" stroke="#263238" stroke-linecap="round" stroke-linejoin="round"/>
<path d="M250.589 96.9542H292.447" stroke="#263238" stroke-linecap="round" stroke-linejoin="round"/>
<path d="M250.589 102.221H292.447" stroke="#263238" stroke-linecap="round" stroke-linejoin="round"/>
<path d="M229.367 26.7243C229.573 26.0989 229.682 25.4467 229.69 24.7897C229.69 22.3922 227.192 22.2534 224.742 22.2534H224.125V21.6887H234.817V22.2534C232.035 22.2534 231.019 23.9844 230.155 26.5484L224.457 43.1271C224.03 44.3582 223.669 45.2746 222.33 45.2746H222.216L217.203 29.4365L212.54 43.1641C212.103 44.3952 211.742 45.3116 210.404 45.3116H210.299L203.006 22.2534H200.442V21.6887H209.824V22.2534H207.156L212.569 40.4149H212.787L216.87 28.3535L214.971 22.2997H212.407V21.6887H221.799V22.2534H219.13L224.543 40.4149H224.752L229.367 26.7243Z" fill="#37C876"/>
<path d="M292.742 16.4403H249.668V54.3925H292.742V16.4403Z" fill="#37C876" stroke="#263238" stroke-width="2" stroke-linecap="round" stroke-linejoin="round"/>
<path d="M292.742 32.3059C291.297 32.3861 289.862 32.5812 288.45 32.8891C281.907 34.2776 280.198 43.4324 272.8 43.4324C266.248 43.4324 265.688 34.833 256.297 33.7222C254.012 33.3713 251.672 33.7754 249.649 34.87V54.3922H292.742V32.3059Z" fill="#263238" stroke="#263238" stroke-linecap="round" stroke-linejoin="round"/>
<path d="M263.979 25.1228C263.981 26.0573 263.698 26.9713 263.167 27.749C262.636 28.5268 261.879 29.1333 260.994 29.4918C260.109 29.8502 259.134 29.9445 258.194 29.7626C257.254 29.5808 256.39 29.131 255.712 28.4702C255.034 27.8094 254.573 26.9674 254.386 26.0507C254.199 25.1341 254.296 24.1841 254.664 23.3211C255.032 22.4581 255.654 21.7209 256.452 21.2029C257.25 20.6849 258.187 20.4093 259.146 20.4111C260.428 20.4111 261.657 20.9075 262.564 21.7911C263.47 22.6747 263.979 23.8732 263.979 25.1228Z" fill="white" stroke="#263238" stroke-linecap="round" stroke-linejoin="round"/>
<path d="M294.706 4.32312H198.827V7.92395H294.706V4.32312Z" fill="white" stroke="#263238" stroke-linecap="round" stroke-linejoin="round"/>
<path d="M288.725 133.721H247.218C245.586 133.721 244.021 134.353 242.867 135.478C241.713 136.603 241.065 138.129 241.065 139.72V161.362C241.065 162.953 241.713 164.478 242.867 165.603C244.021 166.728 245.586 167.36 247.218 167.36H248.491C247.199 170.137 244.692 174.395 240.732 176.922C240.732 176.922 249.155 176.348 257.929 167.36H288.706C290.338 167.36 291.903 166.728 293.057 165.603C294.211 164.478 294.859 162.953 294.859 161.362V139.72C294.859 138.132 294.213 136.609 293.063 135.485C291.913 134.36 290.353 133.726 288.725 133.721Z" fill="#263238" stroke="#263238" stroke-linecap="round" stroke-linejoin="round"/>
<path d="M260.835 149.772C260.837 149.16 260.653 148.561 260.305 148.051C259.957 147.541 259.462 147.144 258.882 146.908C258.302 146.673 257.664 146.611 257.047 146.73C256.431 146.849 255.865 147.144 255.421 147.577C254.977 148.01 254.675 148.562 254.553 149.162C254.431 149.763 254.494 150.385 254.735 150.951C254.977 151.516 255.385 151.999 255.908 152.338C256.431 152.677 257.045 152.857 257.673 152.855C258.511 152.852 259.314 152.527 259.906 151.949C260.499 151.372 260.833 150.589 260.835 149.772Z" fill="#37C876" stroke="#263238" stroke-linecap="round" stroke-linejoin="round"/>
<path d="M271.594 149.773C271.594 149.163 271.409 148.567 271.061 148.06C270.714 147.553 270.22 147.158 269.642 146.925C269.064 146.691 268.429 146.63 267.815 146.749C267.202 146.868 266.638 147.162 266.196 147.593C265.754 148.024 265.453 148.573 265.331 149.171C265.209 149.769 265.271 150.389 265.511 150.952C265.75 151.515 266.155 151.997 266.675 152.335C267.195 152.674 267.807 152.855 268.432 152.855C269.27 152.853 270.073 152.527 270.665 151.949C271.258 151.372 271.592 150.589 271.594 149.773Z" fill="#37C876" stroke="#263238" stroke-linecap="round" stroke-linejoin="round"/>
<path d="M282.362 149.772C282.364 149.16 282.18 148.562 281.832 148.052C281.485 147.543 280.99 147.145 280.411 146.909C279.832 146.674 279.194 146.611 278.578 146.73C277.962 146.848 277.396 147.142 276.951 147.574C276.507 148.006 276.204 148.557 276.081 149.157C275.958 149.757 276.02 150.379 276.26 150.944C276.499 151.51 276.906 151.993 277.428 152.333C277.949 152.673 278.563 152.855 279.191 152.855C280.029 152.852 280.833 152.527 281.427 151.95C282.021 151.373 282.357 150.59 282.362 149.772Z" fill="#37C876" stroke="#263238" stroke-linecap="round" stroke-linejoin="round"/>
<path d="M60.4735 14.1259H128.844C130.471 14.1259 132.031 14.7559 133.181 15.8773C134.332 16.9987 134.978 18.5197 134.978 20.1056V66.3054H54.3677V20.1056C54.3677 18.5245 55.01 17.0077 56.1543 15.8871C57.2986 14.7664 58.8515 14.1332 60.4735 14.1259Z" fill="#37C876" stroke="#263238" stroke-linecap="round" stroke-linejoin="round"/>
<path d="M134.94 58.8539H54.3677V66.2777H134.94V58.8539Z" fill="#263238" stroke="#263238" stroke-linecap="round" stroke-linejoin="round"/>
<path d="M131.256 61.3903H58.0615V63.7414H131.256V61.3903Z" fill="white" stroke="#263238" stroke-linecap="round" stroke-linejoin="round"/>
<path d="M94.6585 48.653C100.805 48.653 105.788 43.7958 105.788 37.8042C105.788 31.8126 100.805 26.9554 94.6585 26.9554C88.512 26.9554 83.5293 31.8126 83.5293 37.8042C83.5293 43.7958 88.512 48.653 94.6585 48.653Z" fill="#263238" stroke="#263238" stroke-linecap="round" stroke-linejoin="round"/>
<path d="M89.6353 31.0562L101.648 37.8135L89.6353 44.5708V31.0562Z" fill="white" stroke="#263238" stroke-linecap="round" stroke-linejoin="round"/>
<path d="M100.09 85.2815H23.6197C22.1408 85.2815 20.9419 86.4502 20.9419 87.8919V116.3C20.9419 117.742 22.1408 118.911 23.6197 118.911H100.09C101.569 118.911 102.768 117.742 102.768 116.3V87.8919C102.768 86.4502 101.569 85.2815 100.09 85.2815Z" fill="#263238" stroke="#263238" stroke-linecap="round" stroke-linejoin="round"/>
<path d="M30.685 89.8635L31.0838 90.5115C29.2796 91.4927 27.5989 93.2144 27.5989 95.2324C27.5758 95.579 27.6239 95.9267 27.7404 96.255C27.8569 96.5832 28.0394 96.8855 28.2773 97.1442C28.5152 97.4028 28.8037 97.6126 29.1258 97.7611C29.4479 97.9097 29.7972 97.9941 30.1532 98.0094C30.4191 98.0094 30.5996 97.8798 30.5996 97.6206C30.5996 97.3614 30.4666 97.2781 30.2007 97.2318C29.8422 97.1371 29.5298 96.9213 29.3193 96.6229C29.1089 96.3245 29.014 95.9629 29.0517 95.6026C29.0586 95.3152 29.1254 95.0322 29.2481 94.7707C29.3708 94.5093 29.5467 94.2749 29.7652 94.0818C29.9837 93.8887 30.2402 93.7409 30.5192 93.6475C30.7981 93.5541 31.0936 93.517 31.3877 93.5384C31.7077 93.5395 32.0241 93.6031 32.3184 93.7255C32.6127 93.8479 32.8788 94.0265 33.101 94.2509C33.3233 94.4753 33.4971 94.7409 33.6122 95.0319C33.7273 95.3229 33.7813 95.6334 33.7712 95.9451C33.7665 96.3369 33.6809 96.7237 33.5195 97.0825C33.3581 97.4413 33.1242 97.7647 32.8317 98.0334C32.5392 98.3021 32.1942 98.5106 31.8172 98.6464C31.4402 98.7823 31.039 98.8426 30.6375 98.8239C30.1384 98.8554 29.6381 98.7844 29.169 98.6153C28.6999 98.4463 28.2724 98.1831 27.9143 97.8428C27.5562 97.5024 27.2755 97.0925 27.0903 96.6396C26.9051 96.1868 26.8195 95.701 26.8392 95.2139C26.8107 92.8719 28.6624 90.9836 30.685 89.8635ZM38.842 89.8635L39.2408 90.5115C37.4271 91.4927 35.7558 93.2144 35.7558 95.2324C35.7314 95.5793 35.7786 95.9275 35.8946 96.2563C36.0106 96.5851 36.1931 96.8879 36.4312 97.1468C36.6694 97.4057 36.9584 97.6155 37.2811 97.7636C37.6038 97.9118 37.9538 97.9953 38.3102 98.0094C38.5761 98.0094 38.7565 97.8798 38.7565 97.6206C38.7565 97.3614 38.6236 97.2781 38.3577 97.2318C37.9991 97.1371 37.6867 96.9213 37.4763 96.6229C37.2658 96.3245 37.171 95.9629 37.2087 95.6026C37.2142 95.3148 37.2801 95.0311 37.4023 94.769C37.5245 94.5069 37.7004 94.272 37.9193 94.0786C38.1381 93.8853 38.3951 93.7376 38.6747 93.6447C38.9542 93.5518 39.2503 93.5156 39.5447 93.5384C39.8646 93.5395 40.1811 93.6031 40.4754 93.7255C40.7696 93.8479 41.0358 94.0265 41.258 94.2509C41.4802 94.4753 41.654 94.7409 41.7691 95.0319C41.8842 95.3229 41.9383 95.6334 41.9281 95.9451C41.9222 96.3365 41.8357 96.7227 41.6738 97.0809C41.512 97.4391 41.278 97.762 40.9858 98.0305C40.6936 98.2989 40.3491 98.5075 39.9727 98.6438C39.5963 98.7801 39.1956 98.8413 38.7945 98.8239C38.2957 98.854 37.7961 98.7819 37.3276 98.6124C36.8592 98.4428 36.4323 98.1795 36.0746 97.8395C35.7168 97.4994 35.436 97.0901 35.2502 96.6379C35.0645 96.1857 34.978 95.7006 34.9961 95.2139C34.9582 92.8719 36.8099 90.9836 38.842 89.8635Z" fill="#37C876"/>
<path d="M46.647 96.7136H93.2147" stroke="white" stroke-linecap="round" stroke-linejoin="round"/>
<path d="M46.647 100.611H93.2147" stroke="white" stroke-linecap="round" stroke-linejoin="round"/>
<path d="M46.647 104.508H93.2147" stroke="white" stroke-linecap="round" stroke-linejoin="round"/>
<path d="M46.647 108.414H93.2147" stroke="white" stroke-linecap="round" stroke-linejoin="round"/>
<path d="M84.9753 171.053C94.587 169.524 101.107 160.688 99.5383 151.319C97.9695 141.949 88.9059 135.593 79.2942 137.123C69.6825 138.652 63.1624 147.487 64.7312 156.857C66.3 166.226 75.3636 172.582 84.9753 171.053Z" fill="#263238" stroke="#263238" stroke-linecap="round" stroke-linejoin="round"/>
<path d="M93.3196 163.679C98.7425 157.66 98.1328 148.495 91.958 143.209C85.7831 137.923 76.3814 138.517 70.9586 144.536C65.5357 150.555 66.1453 159.72 72.3202 165.006C78.495 170.293 87.8968 169.698 93.3196 163.679Z" fill="white" stroke="#263238" stroke-linecap="round" stroke-linejoin="round"/>
<path d="M82.1431 143.598V154.086H89.4169" stroke="#263238" stroke-width="2" stroke-linecap="round" stroke-linejoin="round"/>
<path d="M192.466 154.123C192.466 154.123 202.579 175.163 202.579 176.274C202.579 177.385 193.605 182.143 191.896 183.143C190.57 183.879 189.204 184.543 187.803 185.133L188.829 194.88C188.829 194.88 204.279 191.446 210.755 188.012C217.231 184.577 217.003 180.699 215.503 174.941C214.002 169.184 204.022 146.931 204.022 146.931L192.466 154.123Z" fill="white"/>
<g style="mix-blend-mode:multiply" opacity="0.5">
<path d="M210.726 188.012C217.203 184.577 216.975 180.699 215.474 174.941C213.974 169.184 203.994 146.931 203.994 146.931L202.38 147.93L201.867 148.856C201.867 148.856 211.182 171.146 211.742 178.57C212.122 183.559 201.819 189.78 195.011 193.334C200.063 192.029 206.938 190.02 210.726 188.012Z" fill="#37C876"/>
</g>
<path d="M192.466 154.123C192.466 154.123 202.579 175.163 202.579 176.274C202.579 177.385 193.605 182.143 191.896 183.143C190.57 183.879 189.204 184.543 187.803 185.133L188.829 194.88C188.829 194.88 204.279 191.446 210.755 188.012C217.231 184.577 217.003 180.699 215.503 174.941C214.002 169.184 204.022 146.931 204.022 146.931L192.466 154.123Z" stroke="#263238" stroke-linecap="round" stroke-linejoin="round"/>
<path d="M119.499 149.476C119.499 149.476 112.121 175.83 111.903 180.486C111.684 185.142 126.555 194.325 127.096 194.88C127.637 195.435 126.251 178.866 126.251 178.866L131.293 154.799L119.499 149.476Z" fill="white"/>
<g style="mix-blend-mode:multiply" opacity="0.5">
<path d="M122.88 151.633L122.719 150.92L119.499 149.476C119.499 149.476 112.121 175.83 111.903 180.486C111.684 185.142 126.555 194.325 127.096 194.88C127.315 195.102 127.229 192.621 127.049 189.557C122.624 185.901 116.271 180.754 115.53 178.588" fill="#37C876"/>
</g>
<path d="M119.499 149.476C119.499 149.476 112.121 175.83 111.903 180.486C111.684 185.142 126.555 194.325 127.096 194.88C127.637 195.435 126.251 178.866 126.251 178.866L131.293 154.799L119.499 149.476Z" stroke="#263238" stroke-linecap="round" stroke-linejoin="round"/>
<path d="M154.15 123.003C154.15 123.003 151.301 125.002 145.746 125.224C140.191 125.446 139.925 121.521 133.021 121.521C124.656 121.521 114.163 147.32 114.163 147.32C114.163 147.32 119.385 152.309 124.504 154.41C127.335 155.619 130.312 156.475 133.363 156.956L134.161 173.905H190.509L191.184 156.956L208.798 145.82C208.798 145.82 200.157 130.76 195.96 125.113C191.763 119.466 184.707 121.568 182.552 123.003C180.396 124.437 174.006 124.78 171.651 124.447C168.578 123.784 165.542 122.971 162.554 122.012C162.554 122.012 158.926 119.068 154.15 123.003Z" fill="#37C876" stroke="#263238" stroke-linecap="round" stroke-linejoin="round"/>
<path d="M133.933 128.982L133.705 157.113" stroke="#263238" stroke-width="0.5" stroke-linecap="round" stroke-linejoin="round"/>
<path d="M135.974 131.537C135.974 131.537 136.772 145.264 139.772 152.91" stroke="#263238" stroke-width="0.5" stroke-linecap="round" stroke-linejoin="round"/>
<path d="M140.296 154.012C140.944 155.878 141.741 157.692 142.679 159.436" stroke="#263238" stroke-width="0.5" stroke-linecap="round" stroke-linejoin="round"/>
<path d="M137.788 129.982C138.866 134.973 140.388 139.864 142.337 144.598" stroke="#263238" stroke-width="0.5" stroke-linecap="round" stroke-linejoin="round"/>
<path d="M186.768 132.417C186.768 132.417 184.043 143.275 181.65 148.153" stroke="#263238" stroke-width="0.5" stroke-linecap="round" stroke-linejoin="round"/>
<path d="M191.184 157.002L191.07 135.073" stroke="#263238" stroke-width="0.5" stroke-linecap="round" stroke-linejoin="round"/>
<path d="M189.939 135.517C189.939 135.517 187.888 149.402 182.894 156.669" stroke="#263238" stroke-width="0.5" stroke-linecap="round" stroke-linejoin="round"/>
<path d="M187.443 153.901C187.443 153.901 185.164 158.113 183.578 160.325" stroke="#263238" stroke-width="0.5" stroke-linecap="round" stroke-linejoin="round"/>
<path d="M150.968 124.669C150.968 124.669 152.564 134.194 154.833 139.063C157.103 143.932 161.081 144.931 164.49 143.497C167.899 142.062 170.397 134.962 170.188 125.909" stroke="#263238" stroke-width="0.5" stroke-linecap="round" stroke-linejoin="round"/>
<path d="M142.907 104.73C142.907 104.73 140.742 101.083 139.042 102.962C137.342 104.841 140.41 109.164 142.109 110.598C143.809 112.033 145.063 111.154 144.958 109.608C144.854 108.062 142.907 104.73 142.907 104.73Z" fill="#37C876" stroke="#263238" stroke-linecap="round" stroke-linejoin="round"/>
<path opacity="0.5" d="M142.907 104.73C142.907 104.73 140.742 101.083 139.042 102.962C137.342 104.841 140.41 109.164 142.109 110.598C143.809 112.033 145.063 111.154 144.958 109.608C144.854 108.062 142.907 104.73 142.907 104.73Z" fill="white"/>
<path d="M142.907 104.73C142.907 104.73 140.742 101.083 139.042 102.962C137.342 104.841 140.41 109.164 142.109 110.598C143.809 112.033 145.063 111.154 144.958 109.608C144.854 108.062 142.907 104.73 142.907 104.73Z" stroke="#263238" stroke-linecap="round" stroke-linejoin="round"/>
<path d="M177.272 104.73C177.272 104.73 179.427 101.083 181.136 102.962C182.846 104.841 179.769 109.164 178.069 110.598C176.37 112.033 175.107 111.154 175.221 109.608C175.334 108.062 177.272 104.73 177.272 104.73Z" fill="#37C876" stroke="#263238" stroke-linecap="round" stroke-linejoin="round"/>
<path opacity="0.5" d="M177.272 104.73C177.272 104.73 179.427 101.083 181.136 102.962C182.846 104.841 179.769 109.164 178.069 110.598C176.37 112.033 175.107 111.154 175.221 109.608C175.334 108.062 177.272 104.73 177.272 104.73Z" fill="white"/>
<path d="M177.272 104.73C177.272 104.73 179.427 101.083 181.136 102.962C182.846 104.841 179.769 109.164 178.069 110.598C176.37 112.033 175.107 111.154 175.221 109.608C175.334 108.062 177.272 104.73 177.272 104.73Z" stroke="#263238" stroke-linecap="round" stroke-linejoin="round"/>
<path d="M153.124 122.234C154.197 126.961 155.563 131.619 157.217 136.184C159.268 141.164 163.123 141.164 164.718 137.952C166.314 134.74 167.33 122.771 167.33 122.771C167.33 122.771 156.647 124.224 153.124 122.234Z" fill="white" stroke="#263238" stroke-linecap="round" stroke-linejoin="round"/>
<path d="M143.135 105.952C143.135 105.952 146.088 116.134 151.681 122.123C157.274 128.112 159.278 129.528 162.25 129.093C165.222 128.658 168.385 124.891 172.81 117.059C177.235 109.228 177.558 103.221 177.928 102.665C178.298 102.11 176.978 91.0391 170.654 86.272C164.33 81.5048 157.246 79.4128 151.112 84.615C144.977 89.8172 141.084 98.3056 143.135 105.952Z" fill="white"/>
<g style="mix-blend-mode:multiply" opacity="0.5">
<path d="M170.626 86.2349C164.263 81.477 157.217 79.3758 151.083 84.578C144.949 89.7802 141.084 98.3055 143.135 105.952C143.135 105.952 143.695 107.914 144.806 110.58C144.803 110.239 144.851 109.899 144.949 109.571C146.307 105.378 150.314 97.2596 163.798 100.981C174.509 103.924 173.199 113.107 172.202 118.004L172.781 116.985C177.216 109.127 177.529 103.147 177.9 102.591C178.27 102.036 176.988 91.0021 170.626 86.2349Z" fill="#37C876"/>
</g>
<path d="M143.135 105.952C143.135 105.952 146.088 116.134 151.681 122.123C157.274 128.112 159.278 129.528 162.25 129.093C165.222 128.658 168.385 124.891 172.81 117.059C177.235 109.228 177.558 103.221 177.928 102.665C178.298 102.11 176.978 91.0391 170.654 86.272C164.33 81.5048 157.246 79.4128 151.112 84.615C144.977 89.8172 141.084 98.3056 143.135 105.952Z" stroke="#263238" stroke-linecap="round" stroke-linejoin="round"/>
<path d="M162.221 111.265C161.869 113.427 161.679 115.611 161.652 117.8C161.765 120.013 162.449 120.679 161.424 120.901C160.398 121.123 159.268 119.568 159.268 119.568" stroke="#263238" stroke-linecap="round" stroke-linejoin="round"/>
<path d="M150.854 113.042C151.512 113.506 152.299 113.764 153.111 113.784C153.922 113.804 154.721 113.584 155.403 113.153" stroke="#263238" stroke-linecap="round" stroke-linejoin="round"/>
<path d="M165.289 113.042C165.945 113.505 166.73 113.763 167.54 113.783C168.351 113.803 169.148 113.583 169.828 113.153" stroke="#263238" stroke-linecap="round" stroke-linejoin="round"/>
<path d="M158.11 109.312C158.11 109.312 155.945 104.101 148.794 106.535" stroke="#263238" stroke-linecap="round" stroke-linejoin="round"/>
<path d="M164.063 108.673C164.063 108.673 165.877 103.573 172.353 106.563" stroke="#263238" stroke-linecap="round" stroke-linejoin="round"/>
<path d="M159.487 113.422C159.487 116.273 156.135 118.578 151.994 118.578C147.854 118.578 144.493 116.273 144.493 113.422C144.493 110.571 147.626 109.386 151.767 109.386C155.907 109.386 159.487 110.58 159.487 113.422Z" stroke="#263238" stroke-linecap="round" stroke-linejoin="round"/>
<path d="M176.759 113.422C176.759 116.273 173.398 118.578 169.257 118.578C165.117 118.578 161.765 116.273 161.765 113.422C161.765 110.571 164.889 109.386 169.029 109.386C173.17 109.386 176.759 110.58 176.759 113.422Z" stroke="#263238" stroke-linecap="round" stroke-linejoin="round"/>
<path d="M81.0117 202.22L80.5464 314.438C80.5464 314.792 80.6905 315.131 80.9469 315.381C81.2033 315.631 81.5511 315.771 81.9138 315.771C82.2674 315.771 82.6072 315.637 82.8608 315.397C83.1144 315.157 83.2618 314.829 83.2717 314.485L86.5573 202.378L81.0117 202.22Z" fill="white" stroke="#263238" stroke-linecap="round" stroke-linejoin="round"/>
<path d="M73.2642 228.454L72.8179 344.467C72.8166 344.642 72.8511 344.816 72.9194 344.979C72.9877 345.141 73.0884 345.288 73.2156 345.412C73.3428 345.536 73.4941 345.634 73.6605 345.701C73.827 345.768 74.0054 345.801 74.1853 345.8C74.5383 345.8 74.8777 345.667 75.1326 345.429C75.3875 345.191 75.538 344.866 75.5527 344.523L78.8288 228.602L73.2642 228.454Z" fill="white" stroke="#263238" stroke-linecap="round" stroke-linejoin="round"/>
<path d="M240.164 202.22L240.629 314.438C240.63 314.613 240.596 314.786 240.528 314.948C240.461 315.109 240.361 315.256 240.234 315.38C240.108 315.504 239.958 315.603 239.793 315.67C239.627 315.737 239.45 315.771 239.271 315.771C238.916 315.772 238.576 315.637 238.32 315.397C238.065 315.157 237.916 314.83 237.904 314.485L234.627 202.378L240.164 202.22Z" fill="white" stroke="#263238" stroke-linecap="round" stroke-linejoin="round"/>
<path d="M247.922 228.454L248.387 344.467C248.388 344.642 248.354 344.816 248.285 344.979C248.217 345.141 248.116 345.288 247.989 345.412C247.862 345.536 247.711 345.634 247.544 345.701C247.378 345.768 247.199 345.801 247.019 345.8C246.667 345.8 246.329 345.667 246.076 345.429C245.822 345.19 245.674 344.866 245.662 344.523L242.376 228.602L247.922 228.454Z" fill="white" stroke="#263238" stroke-linecap="round" stroke-linejoin="round"/>
<path d="M127.219 233.276L126.944 336.247C126.914 336.504 126.987 336.762 127.148 336.968C127.31 337.173 127.546 337.31 127.808 337.349C128.064 337.314 128.297 337.186 128.459 336.99C128.622 336.794 128.701 336.545 128.682 336.293L130.742 233.397L127.219 233.276Z" fill="white" stroke="#263238" stroke-linecap="round" stroke-linejoin="round"/>
<path d="M194.08 229.963L194.337 319.826C194.358 320.043 194.294 320.261 194.156 320.433C194.018 320.605 193.818 320.719 193.596 320.752C193.375 320.719 193.175 320.605 193.039 320.432C192.903 320.26 192.84 320.042 192.865 319.826L191.108 230.037L194.08 229.963Z" fill="white" stroke="#263238" stroke-linecap="round" stroke-linejoin="round"/>
<path d="M126.185 229.963L126.441 319.826C126.463 320.043 126.399 320.261 126.261 320.433C126.123 320.605 125.923 320.719 125.701 320.752C125.48 320.719 125.28 320.605 125.144 320.432C125.008 320.26 124.945 320.042 124.97 319.826L123.213 230.037L126.185 229.963Z" fill="white" stroke="#263238" stroke-linecap="round" stroke-linejoin="round"/>
<path d="M192.171 233.276L192.465 336.247C192.495 336.504 192.422 336.762 192.261 336.968C192.1 337.173 191.863 337.31 191.601 337.349C191.346 337.312 191.115 337.183 190.953 336.988C190.791 336.792 190.711 336.544 190.728 336.293L188.667 233.397L192.171 233.276Z" fill="white" stroke="#263238" stroke-linecap="round" stroke-linejoin="round"/>
<path d="M159.23 240.487C182.568 240.487 201.487 236.273 201.487 231.073C201.487 225.874 182.568 221.659 159.23 221.659C135.893 221.659 116.974 225.874 116.974 231.073C116.974 236.273 135.893 240.487 159.23 240.487Z" fill="white" stroke="#263238" stroke-linecap="round" stroke-linejoin="round"/>
<path d="M138.653 310.986C138.653 310.986 136.44 314.077 138.026 315.614C139.612 317.151 141.188 316.54 141.027 318.086C140.865 319.631 138.339 324.871 136.127 330.425C133.914 335.979 138.501 341.533 142.774 339.996C147.047 338.459 146.572 323.019 147.199 320.242C147.826 317.465 148.31 317.002 148.148 314.383C147.987 311.763 147.835 308.986 145.774 308.672C143.714 308.357 139.602 309.912 138.653 310.986Z" fill="white" stroke="#263238" stroke-linecap="round" stroke-linejoin="round"/>
<path d="M145.442 335.738C142.594 334.683 138.226 334.896 135.766 335.136C136.592 338.626 139.754 341.079 142.774 339.996C144.037 339.542 144.863 337.895 145.442 335.738Z" fill="#37C876" stroke="#263238" stroke-linecap="round" stroke-linejoin="round"/>
<path d="M133.752 304.201C133.752 304.201 138.338 311.763 139.601 313.763C140.864 315.762 145.147 315.151 145.622 312.374C146.097 309.597 143.875 301.886 143.875 301.886L134.379 304.201H133.752Z" fill="white" stroke="#263238" stroke-linecap="round" stroke-linejoin="round"/>
<path d="M122.831 292.167C122.831 292.167 121.559 294.176 122.195 295.564C122.831 296.953 124.569 300.961 125.68 302.97C126.791 304.978 131.853 306.21 137.702 305.284C143.551 304.358 146.884 301.729 147.046 299.415C147.207 297.101 146.096 294.019 145.299 290.316C144.501 286.613 142.45 286.771 139.601 286.771C136.752 286.771 125.205 290.01 122.831 292.167Z" fill="#37C876" stroke="#263238" stroke-linecap="round" stroke-linejoin="round"/>
<path d="M139.925 246.81C140.01 243.014 142.261 241.145 142.432 238.543C142.699 235.105 142.408 231.646 141.568 228.296L137.237 222.529C124.779 222.687 115.853 222.89 115.71 222.937C115.235 223.085 114.913 225.714 114.599 227.871C114.599 227.871 109.31 228.528 110.26 242.875C110.393 244.875 115.729 268.007 116.119 270.645C118.493 286.761 123.782 294.833 123.782 294.833C123.782 294.833 124.257 296.842 130.429 296.379C136.601 295.916 142.773 291.908 142.773 291.908C142.773 291.908 139.602 260.537 139.925 246.81Z" fill="#263238" stroke="#263238" stroke-linecap="round" stroke-linejoin="round"/>
<path d="M113.745 225.519C113.745 225.519 107.202 226.445 103.195 230.907C99.1875 235.368 102.587 238.312 110.374 237.516C118.16 236.72 127.143 228.954 127.523 228.537C127.903 228.121 119.404 222.844 113.745 225.519Z" fill="white" stroke="#263238" stroke-linecap="round" stroke-linejoin="round"/>
<path d="M125.359 228.296C129.527 228.505 133.663 229.126 137.703 230.148C143.088 231.693 152.583 234.776 154.796 234.776C157.009 234.776 156.382 226.75 156.382 225.214C156.382 223.677 127.894 222.742 124.409 222.742C120.924 222.742 125.359 228.296 125.359 228.296Z" fill="white" stroke="#263238" stroke-linecap="round" stroke-linejoin="round"/>
<path d="M156.381 225.214C156.381 225.214 153.846 226.445 152.896 231.074C151.947 235.702 150.684 238.173 152.583 239.404C154.482 240.636 162.715 241.561 163.978 240.33C165.241 239.099 168.726 232.925 169.362 228.917C169.999 224.909 156.381 225.214 156.381 225.214Z" fill="#37C876" stroke="#263238" stroke-linecap="round" stroke-linejoin="round"/>
<path d="M167.14 226.751C165.668 228.397 164.493 230.275 163.665 232.305C162.994 234.429 162.464 236.593 162.079 238.784C165.109 239.594 168.07 240.627 170.939 241.876C176.01 244.033 184.556 245.579 192.779 247.43C201.003 249.281 203.225 251.133 206.073 251.133C208.922 251.133 212.407 248.967 216.842 243.727C221.276 238.488 217.469 227.371 213.043 223.974C208.618 220.577 184.869 217.809 181.707 218.735C178.545 219.66 167.14 226.751 167.14 226.751Z" fill="#263238" stroke="#263238" stroke-linecap="round" stroke-linejoin="round"/>
<path d="M107.752 237.599C107.127 234.83 105.86 232.237 104.049 230.018C103.755 230.287 103.47 230.564 103.194 230.87C99.6714 234.776 101.874 237.553 107.752 237.599Z" fill="#37C876" stroke="#263238" stroke-linecap="round" stroke-linejoin="round"/>
<path d="M139.441 240.043C139.441 240.043 136.174 274.117 129.508 279.421" stroke="white" stroke-width="0.5" stroke-linecap="round" stroke-linejoin="round"/>
<path d="M137.133 272.386C137.133 272.386 134.54 283.494 127.741 287.909" stroke="white" stroke-width="0.5" stroke-linecap="round" stroke-linejoin="round"/>
<path d="M179.171 233.85C179.171 233.85 169.039 234.471 175.686 238.784C182.333 243.098 194.365 245.884 194.365 245.884" stroke="white" stroke-width="0.5" stroke-linecap="round" stroke-linejoin="round"/>
<path d="M252.726 222.178L249.308 219.179L241.407 202.517C241.032 201.759 240.444 201.12 239.711 200.676C238.978 200.232 238.13 200 237.267 200.008H83.8136C82.9488 199.999 82.0991 200.229 81.3641 200.674C80.6292 201.118 80.0394 201.757 79.6639 202.517L69.8167 223.27L68.1929 222.687V227.436L68.2688 227.38C68.3656 228.014 68.6954 228.591 69.1969 229.005C69.6984 229.419 70.3372 229.641 70.9942 229.629H250.077C250.769 229.645 251.44 229.398 251.948 228.94C252.457 228.482 252.763 227.85 252.802 227.176L252.726 222.178Z" fill="#263238" stroke="#263238" stroke-linecap="round" stroke-linejoin="round"/>
<path d="M250.077 225.288H70.9945C70.551 225.305 70.1103 225.212 69.7137 225.018C69.3171 224.824 68.9777 224.534 68.7271 224.177C68.4766 223.82 68.3231 223.407 68.2812 222.976C68.2393 222.546 68.3103 222.112 68.4876 221.715L79.6642 198.175C80.0378 197.414 80.6272 196.774 81.3626 196.329C82.098 195.885 82.9487 195.655 83.8139 195.667H237.267C238.131 195.657 238.979 195.887 239.713 196.332C240.447 196.776 241.035 197.416 241.407 198.175L252.584 221.715C252.761 222.112 252.832 222.546 252.79 222.976C252.749 223.407 252.595 223.82 252.345 224.177C252.094 224.534 251.755 224.824 251.358 225.018C250.961 225.212 250.521 225.305 250.077 225.288Z" fill="white" stroke="#263238" stroke-linecap="round" stroke-linejoin="round"/>
<g style="mix-blend-mode:multiply" opacity="0.5">
<path d="M80.0632 209.478C80.0632 209.478 76.0085 212.19 78.5439 213.18C81.0793 214.171 110.222 213.43 113.774 212.44C117.325 211.449 121.37 202.313 121.37 200.832C121.37 199.351 116.261 198.286 114.381 198.203C112.501 198.12 87.6599 199.592 87.6599 199.592L80.0632 209.478Z" fill="#37C876"/>
</g>
<g style="mix-blend-mode:multiply" opacity="0.5">
<path d="M225.027 214.171C230.764 214.171 235.415 212.289 235.415 209.968C235.415 207.647 230.764 205.766 225.027 205.766C219.289 205.766 214.638 207.647 214.638 209.968C214.638 212.289 219.289 214.171 225.027 214.171Z" fill="#37C876"/>
</g>
<g style="mix-blend-mode:multiply" opacity="0.5">
<path d="M158.889 219.364C179.462 219.364 196.141 216.322 196.141 212.569C196.141 208.817 179.462 205.775 158.889 205.775C138.315 205.775 121.636 208.817 121.636 212.569C121.636 216.322 138.315 219.364 158.889 219.364Z" fill="#37C876"/>
</g>
<path d="M217.43 193.436C217.43 193.436 216.746 190.779 214.476 191.668C212.207 192.557 212.435 198.425 212.881 201.748C213.327 205.072 216.404 203.516 216.404 203.516V201.526C216.404 201.526 215.274 202.406 214.704 201.193C214.135 199.98 214.249 193.88 214.818 193.991C215.388 194.102 216.518 195.982 216.518 195.982C216.518 195.982 216.86 195.769 217.43 193.436Z" fill="#37C876" stroke="#263238" stroke-linecap="round" stroke-linejoin="round"/>
<path d="M215.797 193.88V208.432C215.797 210.144 219.833 211.533 224.818 211.533C229.804 211.533 233.83 210.144 233.83 208.432V193.88H215.797Z" fill="#37C876" stroke="#263238" stroke-linecap="round" stroke-linejoin="round"/>
<path d="M233.83 193.88C233.83 195.361 229.794 196.556 224.818 196.556C219.843 196.556 215.797 195.361 215.797 193.88C215.797 192.399 219.833 191.205 224.818 191.205C229.804 191.205 233.83 192.409 233.83 193.88Z" fill="white" stroke="#263238" stroke-linecap="round" stroke-linejoin="round"/>
<path d="M232.652 193.88C232.652 195.167 229.138 196.204 224.818 196.204C220.497 196.204 216.974 195.167 216.974 193.88C216.974 192.594 220.488 191.557 224.818 191.557C229.148 191.557 232.652 192.594 232.652 193.88Z" fill="white" stroke="#263238" stroke-linecap="round" stroke-linejoin="round"/>
<path d="M218.769 195.361C222.716 196.484 226.91 196.484 230.857 195.361C226.91 194.238 222.716 194.238 218.769 195.361Z" fill="#263238" stroke="#263238" stroke-linecap="round" stroke-linejoin="round"/>
<path d="M78.9419 200.526L79.0559 205.507L113.478 205.84V200.082L78.9419 200.526Z" fill="white" stroke="#263238" stroke-linecap="round" stroke-linejoin="round"/>
<path d="M113.479 205.84L118.484 195.324V192.223L113.251 201.082L113.479 205.84Z" fill="white" stroke="#263238" stroke-linecap="round" stroke-linejoin="round"/>
<path d="M78.9419 205.062L79.0559 210.052L113.478 210.385V204.627L78.9419 205.062Z" fill="white" stroke="#263238" stroke-linecap="round" stroke-linejoin="round"/>
<path d="M113.479 210.385L118.484 199.86V196.759L113.251 205.618L113.479 210.385Z" fill="white" stroke="#263238" stroke-linecap="round" stroke-linejoin="round"/>
<path d="M92.2367 187.901C92.2367 187.901 93.0343 186.355 91.8948 185.688C90.7553 185.022 89.5114 186.614 88.8276 187.123C88.1439 187.632 73.8337 196.87 73.3779 198.314C72.9221 199.758 73.3779 202.943 76.445 203.294C79.5122 203.646 82.2375 201.637 83.6049 201.304C84.9723 200.971 85.5041 200.86 85.5041 200.86L94.9335 188.456L92.2367 187.901Z" fill="white" stroke="#263238" stroke-linecap="round" stroke-linejoin="round"/>
<path d="M76.4447 203.304C79.5118 203.637 82.2371 201.647 83.6046 201.313C84.972 200.98 85.5037 200.869 85.5037 200.869L85.8456 200.416L76.9859 198.657C76.5043 198.215 75.885 197.942 75.2262 197.881C74.5674 197.821 73.9068 197.977 73.349 198.324C72.9217 199.749 73.3775 202.961 76.4447 203.304Z" fill="white" stroke="#263238" stroke-linecap="round" stroke-linejoin="round"/>
<path d="M77.0151 198.675H103.604C111.903 198.675 114.4 198.231 114.4 198.231L119.509 187.928C119.509 187.928 103.366 188.928 98.3808 188.595C96.3208 188.537 94.2691 188.314 92.2465 187.928L77.0151 198.675Z" fill="white" stroke="#263238" stroke-linecap="round" stroke-linejoin="round"/>
<path d="M77.0151 198.675L77.4709 200.665C77.4709 200.665 99.0551 200.776 104.734 200.776C110.412 200.776 114.733 200.999 114.733 200.999L114.391 198.222L77.0151 198.675Z" fill="white" stroke="#263238" stroke-linecap="round" stroke-linejoin="round"/>
<path d="M114.732 200.971L119.499 190.335V187.9L114.391 198.203L114.732 200.971Z" fill="white" stroke="#263238" stroke-linecap="round" stroke-linejoin="round"/>
<path d="M191.421 213.412H126.327C126.182 213.413 126.039 213.386 125.906 213.333C125.772 213.28 125.651 213.202 125.548 213.103C125.446 213.004 125.365 212.887 125.309 212.757C125.254 212.627 125.225 212.488 125.225 212.347C125.225 212.207 125.254 212.068 125.309 211.938C125.365 211.808 125.446 211.69 125.548 211.591C125.651 211.492 125.772 211.414 125.906 211.361C126.039 211.308 126.182 211.282 126.327 211.283H191.421C191.565 211.282 191.707 211.308 191.84 211.361C191.973 211.414 192.094 211.493 192.196 211.592C192.297 211.691 192.378 211.809 192.432 211.938C192.487 212.068 192.514 212.207 192.513 212.347C192.514 212.487 192.487 212.626 192.432 212.756C192.378 212.886 192.297 213.004 192.196 213.103C192.094 213.202 191.973 213.28 191.84 213.333C191.707 213.386 191.565 213.413 191.421 213.412Z" fill="white" stroke="#263238" stroke-linecap="round" stroke-linejoin="round"/>
<path d="M191.972 211.264H125.766C125.524 211.265 125.291 211.175 125.114 211.013C124.938 210.851 124.831 210.63 124.817 210.394L121.218 168.23C121.202 168.1 121.214 167.967 121.255 167.842C121.295 167.716 121.362 167.601 121.452 167.503C121.542 167.404 121.652 167.326 121.776 167.273C121.899 167.22 122.032 167.192 122.167 167.193H195.58C195.715 167.192 195.848 167.22 195.972 167.273C196.095 167.326 196.205 167.404 196.295 167.503C196.385 167.601 196.452 167.716 196.493 167.842C196.533 167.967 196.546 168.1 196.53 168.23L192.931 210.394C192.916 210.631 192.808 210.854 192.63 211.016C192.451 211.178 192.215 211.267 191.972 211.264Z" fill="white" stroke="#263238" stroke-linecap="round" stroke-linejoin="round"/>
<path d="M165.118 189.955C165.118 192.473 162.317 194.51 158.87 194.51C155.423 194.51 152.612 192.473 152.612 189.955C152.612 187.438 155.413 185.41 158.87 185.41C162.326 185.41 165.118 187.447 165.118 189.955Z" fill="white" stroke="#263238" stroke-linecap="round" stroke-linejoin="round"/>
<path d="M229.813 157.02C230.828 156.248 231.542 155.16 231.836 153.938C232.049 153.021 232.026 152.067 231.769 151.161" stroke="#263238" stroke-linecap="round" stroke-linejoin="round"/>
<path d="M222.235 190.03C222.235 190.03 228.55 186.327 226.489 182.097C224.428 177.866 217.458 175.062 217.458 168.471C217.458 162.787 223.659 160.686 227.705 158.409" stroke="#263238" stroke-linecap="round" stroke-linejoin="round"/>
<path d="M228.066 189.909C228.066 189.909 231.589 187.623 231.589 183.994C231.589 181.56 228.92 179.968 225.397 176.052" stroke="#263238" stroke-linecap="round" stroke-linejoin="round"/>
<path d="M223.45 173.682C223.45 173.682 221.143 171.914 222.842 168.591" stroke="#263238" stroke-linecap="round" stroke-linejoin="round"/>
<path d="M169.989 76.7192C171.119 76.4878 173.54 75.5806 175.173 71.8872C175.199 71.8313 175.212 71.7712 175.213 71.7101C175.214 71.6491 175.203 71.5885 175.18 71.5317C175.157 71.4749 175.123 71.4231 175.08 71.3793C175.036 71.3355 174.984 71.3004 174.926 71.2763C174.81 71.2293 174.68 71.2281 174.563 71.273C174.446 71.3179 174.352 71.4054 174.3 71.517C172.799 74.9049 170.653 75.6547 169.761 75.8213C171.358 73.9369 172.24 71.5732 172.258 69.1288C172.258 62.7047 166.152 57.5024 158.622 57.5024C151.092 57.5024 144.986 62.7047 144.986 69.1288C144.991 71.4747 145.792 73.7529 147.265 75.6084C145.831 75.5343 143.41 76.1268 140.343 79.6165C140.255 79.7046 140.206 79.8225 140.206 79.9451C140.206 80.0678 140.255 80.1857 140.343 80.2737C140.431 80.3451 140.541 80.3843 140.656 80.3848C140.725 80.3849 140.793 80.37 140.856 80.3412C140.918 80.3123 140.973 80.2703 141.017 80.2182C144.939 75.7658 147.531 76.5155 148.053 76.7192C147.166 77.1946 146.335 77.7626 145.575 78.4132C141.197 82.2547 138.529 89.5211 138.871 95.5749C139.255 99.5901 140.748 103.429 143.191 106.683C146.371 104.465 149.007 101.588 150.911 98.2594C152.331 95.8142 153.599 93.2889 154.71 90.6967C154.71 93.4089 155.071 96.6857 156.533 99.0277C157.588 100.877 159.133 102.417 161.008 103.485C162.882 104.554 165.016 105.111 167.187 105.1C167.937 105.111 168.686 105.039 169.419 104.887C169.483 104.871 169.544 104.843 169.596 104.803C169.648 104.763 169.692 104.713 169.723 104.656C173.388 105.415 177.035 105.35 177.595 104.591C178.497 103.378 179.779 99.5923 180.206 94.964C180.985 87.1144 175.914 80.3015 169.989 76.7192ZM157.416 98.463C155.574 95.5287 155.631 90.743 155.849 87.9938L155.973 87.679C156.06 90.5066 156.8 93.2787 158.136 95.7897C159.473 98.3007 161.372 100.486 163.693 102.184C164.975 103.048 166.397 103.696 167.9 104.1C165.573 104.258 160.787 103.823 157.416 98.463Z" fill="#263238"/>
<path d="M157.577 83.8931C157.577 83.8931 156.799 89.5026 164.11 95.001C171.422 100.499 178.354 98.3334 178.354 98.3334" stroke="white" stroke-width="0.5" stroke-linecap="round" stroke-linejoin="round"/>
<path d="M158.651 82.0417C158.651 82.0417 166.352 92.9738 176.987 90.1228" stroke="white" stroke-width="0.5" stroke-linecap="round" stroke-linejoin="round"/>
<path d="M154.843 78.404C153.628 77.8029 152.268 77.5385 150.91 77.6397C149.551 77.7409 148.248 78.2039 147.141 78.9779C143.049 81.6346 140.998 87.9106 140.998 87.9106" stroke="white" stroke-width="0.5" stroke-linecap="round" stroke-linejoin="round"/>
<path d="M155.042 81.4494C155.042 81.4494 151.728 80.5886 149.677 82.588C148.677 83.4711 147.822 84.4981 147.142 85.6334" stroke="white" stroke-width="0.5" stroke-linecap="round" stroke-linejoin="round"/>
</svg>
