<svg width="517" height="536" viewBox="0 0 517 536" fill="none" xmlns="http://www.w3.org/2000/svg">
<path d="M222.616 536C331.168 536 419.167 530.133 419.167 522.895C419.167 515.657 331.168 509.79 222.616 509.79C114.064 509.79 26.0659 515.657 26.0659 522.895C26.0659 530.133 114.064 536 222.616 536Z" fill="#92E3A9"/>
<path opacity="0.8" d="M222.616 536C331.168 536 419.167 530.133 419.167 522.895C419.167 515.657 331.168 509.79 222.616 509.79C114.064 509.79 26.0659 515.657 26.0659 522.895C26.0659 530.133 114.064 536 222.616 536Z" fill="white"/>
<path d="M370.315 24.5554H172.684C159.04 24.5554 147.979 36.3938 147.979 50.9972V497.555C147.979 512.159 159.04 523.997 172.684 523.997H370.315C383.96 523.997 395.021 512.159 395.021 497.555V50.9972C395.021 36.3938 383.96 24.5554 370.315 24.5554Z" fill="#263238"/>
<path d="M384.035 79.3989H158.952V469.154H384.035V79.3989Z" fill="white" stroke="#263238" stroke-width="1.33739" stroke-miterlimit="10"/>
<path d="M305.997 237.222C325.05 216.83 325.05 183.768 305.997 163.376C286.944 142.984 256.054 142.984 237.001 163.376C217.948 183.768 217.948 216.83 237.001 237.222C256.054 257.614 286.944 257.614 305.997 237.222Z" fill="#92E3A9"/>
<path d="M335.552 444.644H207.46C207.172 444.646 206.886 444.587 206.619 444.47C206.352 444.353 206.11 444.181 205.905 443.964C205.701 443.746 205.539 443.487 205.428 443.202C205.317 442.918 205.26 442.612 205.26 442.304C205.259 441.994 205.314 441.687 205.424 441.4C205.534 441.114 205.696 440.854 205.901 440.635C206.105 440.416 206.349 440.242 206.616 440.125C206.884 440.007 207.171 439.947 207.46 439.949H335.552C335.84 439.949 336.126 440.01 336.392 440.129C336.658 440.247 336.9 440.421 337.103 440.64C337.306 440.858 337.467 441.118 337.576 441.404C337.686 441.689 337.741 441.995 337.739 442.304C337.739 442.924 337.509 443.52 337.099 443.959C336.688 444.398 336.132 444.644 335.552 444.644Z" fill="#92E3A9"/>
<path d="M339.722 281.87H203.277C200.461 281.87 198.178 284.313 198.178 287.327V304.542C198.178 307.556 200.461 309.999 203.277 309.999H339.722C342.538 309.999 344.821 307.556 344.821 304.542V287.327C344.821 284.313 342.538 281.87 339.722 281.87Z" fill="#92E3A9"/>
<path d="M339.722 334.481H203.277C200.461 334.481 198.178 336.925 198.178 339.939V357.154C198.178 360.168 200.461 362.611 203.277 362.611H339.722C342.538 362.611 344.821 360.168 344.821 357.154V339.939C344.821 336.925 342.538 334.481 339.722 334.481Z" fill="#92E3A9"/>
<path d="M295.792 226.346L281.436 217.501V210.193C283.515 207.501 285.021 204.357 285.849 200.98C286.343 201.167 286.863 201.264 287.387 201.265C289.167 201.265 290.299 195.359 290.49 191.14C292.562 186.445 289.739 183.696 289.739 183.696C289.739 183.696 290.909 182.444 291.685 177.423C292.46 172.401 288.951 174.497 286.217 169.897C283.484 165.297 281.525 160.289 272.549 160.289C270.075 160.202 267.634 160.914 265.543 162.331C263.453 163.748 261.809 165.806 260.825 168.237C258.591 168.245 256.364 168.524 254.188 169.067C251.441 169.897 250.666 179.519 253.005 183.288C254.053 185.348 254.612 187.652 254.633 189.997C254.01 189.181 253.361 188.963 253.005 190.814C252.23 194.992 255.358 200.843 255.358 200.843L256.973 200.354C257.786 203.963 259.356 207.328 261.563 210.193V217.501L247.207 226.346C245.531 227.382 244.138 228.872 243.17 230.666C242.201 232.46 241.691 234.495 241.689 236.566V241.629C250.227 248.688 260.711 252.517 271.5 252.517C282.288 252.517 292.772 248.688 301.31 241.629V236.566C301.311 234.494 300.802 232.458 299.833 230.664C298.864 228.869 297.47 227.38 295.792 226.346Z" fill="#263238"/>
<path d="M216.755 355.616C216.426 355.611 216.111 355.469 215.877 355.221C215.752 355.101 215.652 354.955 215.584 354.79C215.516 354.626 215.482 354.448 215.483 354.269C215.487 354.023 215.553 353.783 215.674 353.575L217.963 349.655L213.5 349.805C213.331 349.816 213.163 349.789 213.005 349.726C212.847 349.663 212.704 349.564 212.584 349.438C212.377 349.188 212.262 348.866 212.262 348.533C212.262 348.199 212.377 347.877 212.584 347.628C212.701 347.496 212.844 347.394 213.002 347.328C213.16 347.262 213.33 347.234 213.5 347.247L217.899 347.423L215.636 343.518C215.513 343.305 215.447 343.06 215.445 342.81C215.444 342.63 215.478 342.453 215.546 342.288C215.614 342.124 215.714 341.977 215.839 341.857C216.073 341.609 216.387 341.468 216.717 341.463C216.933 341.464 217.145 341.532 217.327 341.657C217.51 341.782 217.655 341.96 217.746 342.17L219.921 346.376L222.07 342.198C222.172 341.975 222.328 341.786 222.523 341.652C222.718 341.517 222.944 341.443 223.176 341.436C223.337 341.437 223.495 341.473 223.642 341.544C223.789 341.614 223.92 341.716 224.028 341.844C224.261 342.103 224.389 342.45 224.384 342.81C224.383 343.044 224.326 343.273 224.218 343.477L221.917 347.423L226.38 347.247C226.549 347.234 226.719 347.262 226.877 347.328C227.036 347.394 227.178 347.496 227.296 347.628C227.512 347.868 227.631 348.191 227.626 348.526C227.625 348.863 227.507 349.188 227.296 349.438C227.176 349.564 227.032 349.663 226.874 349.726C226.717 349.789 226.548 349.816 226.38 349.805L221.892 349.655L224.129 353.534C224.255 353.75 224.321 354 224.32 354.255C224.32 354.616 224.186 354.962 223.948 355.217C223.709 355.472 223.386 355.616 223.049 355.616C222.831 355.613 222.618 355.542 222.438 355.411C222.257 355.28 222.116 355.096 222.031 354.881L219.908 350.798L217.797 354.881C217.704 355.094 217.557 355.276 217.373 355.406C217.189 355.535 216.975 355.608 216.755 355.616Z" fill="#263238"/>
<path d="M237.379 355.616C237.05 355.611 236.735 355.469 236.501 355.221C236.376 355.101 236.277 354.955 236.209 354.79C236.141 354.626 236.106 354.448 236.107 354.269C236.111 354.023 236.177 353.783 236.298 353.575L238.587 349.655L234.136 349.805C233.967 349.813 233.797 349.785 233.638 349.722C233.478 349.659 233.332 349.562 233.208 349.438C233.04 349.251 232.927 349.015 232.886 348.759C232.844 348.503 232.875 348.24 232.975 348.004C233.076 347.767 233.24 347.569 233.447 347.434C233.654 347.299 233.894 347.233 234.136 347.247L238.523 347.423L236.26 343.518C236.137 343.305 236.071 343.06 236.069 342.81C236.068 342.63 236.102 342.453 236.17 342.288C236.238 342.124 236.338 341.977 236.463 341.857C236.697 341.609 237.012 341.468 237.341 341.463C237.557 341.464 237.769 341.532 237.951 341.657C238.134 341.782 238.279 341.96 238.371 342.17L240.545 346.376L242.694 342.198C242.796 341.975 242.953 341.786 243.148 341.652C243.343 341.517 243.568 341.443 243.8 341.436C243.961 341.435 244.12 341.471 244.267 341.541C244.414 341.612 244.545 341.715 244.652 341.844C244.77 341.971 244.863 342.122 244.926 342.288C244.99 342.453 245.022 342.631 245.021 342.81C245.016 343.045 244.955 343.275 244.843 343.477L242.541 347.423L247.017 347.274C247.184 347.262 247.352 347.29 247.508 347.355C247.665 347.421 247.805 347.524 247.92 347.655C248.136 347.896 248.255 348.219 248.25 348.553C248.249 348.89 248.132 349.215 247.92 349.465C247.802 349.591 247.661 349.689 247.505 349.753C247.35 349.816 247.183 349.843 247.017 349.832L242.516 349.682L244.754 353.561C244.879 353.778 244.945 354.027 244.944 354.282C244.944 354.643 244.81 354.989 244.572 355.245C244.333 355.5 244.01 355.643 243.673 355.643C243.455 355.64 243.242 355.569 243.062 355.438C242.881 355.308 242.74 355.123 242.656 354.908L240.532 350.826L238.421 354.908C238.324 355.117 238.176 355.293 237.992 355.417C237.808 355.542 237.596 355.611 237.379 355.616Z" fill="#263238"/>
<path d="M258.015 355.616C257.682 355.614 257.362 355.473 257.125 355.221C257 355.101 256.9 354.955 256.832 354.79C256.764 354.626 256.73 354.448 256.731 354.269C256.735 354.023 256.801 353.783 256.922 353.575L259.21 349.655L254.76 349.805C254.52 349.815 254.283 349.749 254.079 349.614C253.875 349.48 253.712 349.283 253.613 349.05C253.513 348.816 253.481 348.556 253.52 348.303C253.559 348.05 253.668 347.815 253.832 347.628C253.952 347.496 254.097 347.395 254.257 347.329C254.417 347.263 254.589 347.235 254.76 347.247L259.147 347.423L256.883 343.518C256.76 343.305 256.694 343.06 256.693 342.81C256.697 342.631 256.734 342.455 256.801 342.292C256.869 342.128 256.966 341.981 257.087 341.857C257.324 341.606 257.643 341.464 257.977 341.463C258.191 341.467 258.401 341.535 258.58 341.66C258.76 341.786 258.904 341.962 258.994 342.17L261.168 346.376L263.317 342.198C263.419 341.975 263.576 341.786 263.771 341.652C263.966 341.517 264.192 341.443 264.424 341.436C264.584 341.435 264.744 341.471 264.891 341.541C265.038 341.612 265.169 341.715 265.275 341.844C265.393 341.971 265.487 342.122 265.55 342.288C265.613 342.453 265.645 342.631 265.644 342.81C265.64 343.045 265.578 343.275 265.466 343.477L263.165 347.423L267.64 347.247C267.805 347.229 267.971 347.249 268.128 347.306C268.284 347.363 268.428 347.455 268.548 347.576C268.669 347.698 268.764 347.845 268.826 348.009C268.889 348.173 268.918 348.349 268.912 348.526C268.915 348.861 268.801 349.186 268.594 349.438C268.474 349.564 268.331 349.663 268.173 349.726C268.015 349.789 267.847 349.816 267.679 349.805L263.19 349.655L265.415 353.534C265.541 353.75 265.607 354 265.606 354.255C265.602 354.434 265.565 354.61 265.497 354.773C265.43 354.937 265.333 355.084 265.212 355.208C265.101 355.335 264.968 355.437 264.819 355.507C264.67 355.577 264.51 355.614 264.347 355.616C264.131 355.612 263.921 355.54 263.742 355.41C263.564 355.279 263.425 355.095 263.343 354.881L261.207 350.798L259.096 354.881C259.001 355.102 258.848 355.288 258.656 355.419C258.465 355.549 258.242 355.617 258.015 355.616Z" fill="#263238"/>
<path d="M278.639 355.616C278.306 355.614 277.986 355.473 277.749 355.221C277.51 354.97 277.373 354.628 277.368 354.269C277.364 354.024 277.426 353.783 277.546 353.575L279.835 349.655L275.384 349.805C275.215 349.813 275.045 349.785 274.886 349.722C274.726 349.659 274.58 349.562 274.456 349.438C274.249 349.188 274.134 348.866 274.134 348.533C274.134 348.199 274.249 347.877 274.456 347.628C274.579 347.501 274.725 347.401 274.884 347.336C275.044 347.27 275.214 347.24 275.384 347.247L279.784 347.423L277.533 343.518C277.41 343.305 277.344 343.06 277.343 342.81C277.347 342.631 277.383 342.455 277.451 342.292C277.519 342.128 277.616 341.981 277.737 341.857C277.974 341.606 278.293 341.464 278.627 341.463C278.843 341.464 279.055 341.532 279.238 341.657C279.42 341.782 279.565 341.96 279.657 342.17L281.818 346.376L283.967 342.198C284.069 341.975 284.226 341.786 284.421 341.652C284.616 341.517 284.842 341.443 285.073 341.436C285.234 341.435 285.393 341.471 285.54 341.541C285.687 341.612 285.819 341.715 285.925 341.844C286.043 341.971 286.136 342.122 286.2 342.288C286.263 342.453 286.295 342.631 286.294 342.81C286.289 343.045 286.228 343.275 286.116 343.477L283.815 347.423L288.29 347.247C288.455 347.229 288.621 347.249 288.778 347.306C288.934 347.363 289.077 347.455 289.198 347.576C289.318 347.698 289.413 347.845 289.476 348.009C289.539 348.173 289.568 348.349 289.562 348.526C289.564 348.861 289.451 349.186 289.244 349.438C289.124 349.564 288.981 349.663 288.823 349.726C288.665 349.789 288.497 349.816 288.328 349.805L283.84 349.655L286.065 353.534C286.19 353.75 286.257 354 286.256 354.255C286.257 354.435 286.223 354.612 286.155 354.777C286.087 354.941 285.987 355.088 285.862 355.208C285.751 355.335 285.617 355.437 285.469 355.507C285.32 355.577 285.159 355.614 284.997 355.616C284.781 355.612 284.57 355.54 284.392 355.41C284.213 355.279 284.074 355.095 283.992 354.881L281.856 350.798L279.746 354.881C279.649 355.106 279.492 355.295 279.296 355.426C279.099 355.557 278.871 355.623 278.639 355.616Z" fill="#263238"/>
<path d="M299.263 355.616C298.929 355.614 298.61 355.473 298.373 355.221C298.176 355.008 298.05 354.73 298.016 354.433C297.981 354.135 298.04 353.833 298.182 353.575L300.458 349.655L296.008 349.805C295.838 349.813 295.668 349.785 295.509 349.722C295.35 349.659 295.204 349.562 295.08 349.438C294.872 349.188 294.758 348.866 294.758 348.533C294.758 348.199 294.872 347.877 295.08 347.628C295.203 347.501 295.348 347.401 295.508 347.336C295.667 347.27 295.837 347.24 296.008 347.247L300.407 347.423L298.144 343.518C298.021 343.305 297.955 343.06 297.953 342.81C297.958 342.451 298.095 342.109 298.335 341.857C298.572 341.606 298.891 341.464 299.225 341.463C299.441 341.464 299.653 341.532 299.836 341.657C300.018 341.782 300.163 341.96 300.255 342.17L302.416 346.376L304.565 342.198C304.667 341.975 304.824 341.786 305.019 341.652C305.214 341.517 305.44 341.443 305.671 341.436C305.834 341.435 305.995 341.471 306.144 341.541C306.293 341.611 306.427 341.715 306.536 341.844C306.769 342.103 306.897 342.45 306.892 342.81C306.888 343.045 306.826 343.275 306.714 343.477L304.413 347.423L308.888 347.247C309.053 347.229 309.219 347.249 309.376 347.306C309.532 347.363 309.676 347.455 309.796 347.576C309.917 347.698 310.011 347.845 310.074 348.009C310.137 348.173 310.166 348.349 310.16 348.526C310.163 348.861 310.049 349.186 309.842 349.438C309.722 349.564 309.579 349.663 309.421 349.726C309.263 349.789 309.095 349.816 308.926 349.805L304.438 349.655L306.663 353.534C306.789 353.75 306.855 354 306.854 354.255C306.855 354.435 306.821 354.612 306.753 354.777C306.685 354.941 306.585 355.088 306.46 355.208C306.349 355.335 306.215 355.437 306.067 355.507C305.918 355.577 305.758 355.614 305.595 355.616C305.379 355.612 305.169 355.54 304.99 355.41C304.811 355.279 304.673 355.095 304.591 354.881L302.454 350.798L300.344 354.881C300.249 355.102 300.096 355.288 299.904 355.419C299.713 355.549 299.49 355.617 299.263 355.616Z" fill="#263238"/>
<path d="M319.887 355.616C319.558 355.611 319.243 355.469 319.01 355.221C318.885 355.101 318.785 354.955 318.717 354.79C318.649 354.626 318.614 354.448 318.616 354.269C318.619 354.023 318.685 353.783 318.806 353.575L321.082 349.655L316.632 349.805C316.468 349.818 316.304 349.795 316.149 349.736C315.994 349.678 315.853 349.585 315.733 349.465C315.613 349.345 315.518 349.199 315.454 349.037C315.39 348.876 315.358 348.701 315.36 348.526C315.36 348.359 315.39 348.194 315.448 348.04C315.507 347.886 315.594 347.746 315.704 347.628C315.821 347.496 315.964 347.394 316.122 347.328C316.28 347.262 316.45 347.234 316.619 347.247L321.019 347.423L318.755 343.518C318.632 343.305 318.566 343.06 318.565 342.81C318.569 342.451 318.707 342.109 318.946 341.857C319.183 341.606 319.503 341.464 319.836 341.463C320.053 341.464 320.265 341.532 320.447 341.657C320.629 341.782 320.775 341.96 320.866 342.17L323.028 346.376L325.189 342.198C325.29 341.977 325.445 341.789 325.638 341.655C325.83 341.521 326.053 341.445 326.283 341.436C326.446 341.435 326.607 341.471 326.756 341.541C326.905 341.611 327.038 341.715 327.147 341.844C327.381 342.103 327.509 342.45 327.503 342.81C327.503 343.044 327.446 343.273 327.338 343.477L325.037 347.423L329.5 347.247C329.669 347.234 329.839 347.262 329.997 347.328C330.155 347.394 330.298 347.496 330.415 347.628C330.632 347.868 330.751 348.191 330.746 348.526C330.745 348.863 330.627 349.188 330.415 349.438C330.295 349.564 330.152 349.663 329.994 349.726C329.836 349.789 329.668 349.816 329.5 349.805L325.011 349.655L327.236 353.534C327.362 353.75 327.428 354 327.427 354.255C327.422 354.614 327.285 354.956 327.046 355.208C326.814 355.461 326.499 355.607 326.168 355.616C325.952 355.612 325.742 355.54 325.563 355.41C325.385 355.279 325.246 355.095 325.164 354.881L323.028 350.798L320.917 354.881C320.825 355.093 320.681 355.275 320.499 355.404C320.317 355.534 320.105 355.607 319.887 355.616Z" fill="#263238"/>
<g style="mix-blend-mode:multiply">
<path d="M384.035 79.916H158.952V95.0081H384.035V79.916Z" fill="#92E3A9"/>
</g>
<path d="M295.97 52.1132H247.016C246.133 52.1132 245.286 51.7375 244.661 51.0689C244.036 50.4002 243.685 49.4933 243.685 48.5477C243.685 47.602 244.036 46.6951 244.661 46.0265C245.286 45.3578 246.133 44.9822 247.016 44.9822H295.97C296.853 44.9822 297.701 45.3578 298.325 46.0265C298.95 46.6951 299.301 47.602 299.301 48.5477C299.301 49.4933 298.95 50.4002 298.325 51.0689C297.701 51.7375 296.853 52.1132 295.97 52.1132Z" fill="#92E3A9" stroke="#263238" stroke-width="1.33739" stroke-linecap="round" stroke-linejoin="round"/>
<path d="M284.844 491.173C284.846 488.346 284.065 485.581 282.599 483.229C281.133 480.877 279.048 479.044 276.608 477.96C274.168 476.877 271.482 476.593 268.891 477.144C266.3 477.695 263.92 479.056 262.052 481.055C260.185 483.055 258.913 485.602 258.398 488.375C257.883 491.148 258.149 494.022 259.161 496.634C260.173 499.245 261.886 501.477 264.084 503.046C266.281 504.615 268.864 505.451 271.506 505.449C275.042 505.445 278.433 503.94 280.933 501.263C283.434 498.587 284.84 494.958 284.844 491.173Z" fill="#92E3A9"/>
<path d="M278.27 483.933H264.741V498.413H278.27V483.933Z" fill="#92E3A9" stroke="#263238" stroke-width="1.33739" stroke-linecap="round" stroke-linejoin="round"/>
<path d="M432.657 326.861C432.657 326.861 414.932 278.658 430.712 272.929C447.14 266.955 446.415 298.786 445.779 314.3C444.444 347.451 441.024 353.615 438.468 345.518L432.657 326.861ZM427.33 364.462C432.199 371.266 433.573 364.217 424.787 332.386C420.667 317.416 411.715 287.137 397.983 298.5C384.798 309.387 416.178 348.852 416.178 348.852L427.33 364.462ZM417.92 392.087C422.561 396.497 422.65 390.931 411.626 367.945C406.451 357.181 395.504 335.393 386.539 346.171C377.931 356.569 407.265 381.84 407.265 381.84L417.92 392.087ZM407.748 424.939C412.389 429.362 412.478 423.782 401.454 400.811C396.279 390.046 385.332 368.245 376.367 379.037C367.81 389.461 397.055 414.732 397.055 414.732L407.748 424.939ZM437.12 358.065C429.695 361.168 435.594 364.543 466.607 364.448C481.153 364.448 510.855 363.74 504.523 346.444C498.458 329.827 454.286 350.989 454.286 350.989L437.12 358.065ZM428.665 380.166C420.807 381.622 425.969 386.195 456.384 392.7C470.637 395.762 499.869 401.409 496.881 383.174C494.02 365.591 446.796 376.941 446.796 376.941L428.665 380.166ZM419.205 407.152C412.516 408.187 416.789 412.174 442.359 418.434C454.349 421.373 478.953 426.885 476.817 411.33C474.782 396.361 434.603 404.825 434.603 404.825L419.205 407.152ZM412.021 432.152C405.472 433.934 410.113 437.418 436.179 440.739C448.386 442.29 473.396 444.985 469.747 429.756C466.225 415.141 427.113 428.083 427.113 428.083L412.021 432.152ZM450.344 330.943C446.529 340.088 454.451 338.7 481.382 313.551C493.995 301.752 519.298 277.066 499.259 264.777C480.021 252.965 459.334 309.959 459.334 309.959L450.344 330.943ZM413.012 464.717C408.982 467.235 412.936 468.215 431.424 464.268C440.096 462.431 457.731 458.348 451.768 450.292C445.995 442.535 422.345 458.866 422.345 458.866L413.012 464.717Z" fill="#92E3A9"/>
<path opacity="0.3" d="M432.657 326.861C432.657 326.861 414.932 278.658 430.712 272.929C447.14 266.955 446.415 298.786 445.779 314.3C444.444 347.451 441.024 353.615 438.468 345.518L432.657 326.861ZM427.33 364.462C432.199 371.266 433.573 364.217 424.787 332.386C420.667 317.416 411.715 287.137 397.983 298.5C384.798 309.387 416.178 348.852 416.178 348.852L427.33 364.462ZM417.92 392.087C422.561 396.497 422.65 390.931 411.626 367.945C406.451 357.181 395.504 335.393 386.539 346.171C377.931 356.569 407.265 381.84 407.265 381.84L417.92 392.087ZM407.748 424.939C412.389 429.362 412.478 423.782 401.454 400.811C396.279 390.046 385.332 368.245 376.367 379.037C367.81 389.461 397.055 414.732 397.055 414.732L407.748 424.939ZM437.12 358.065C429.695 361.168 435.594 364.543 466.607 364.448C481.153 364.448 510.855 363.74 504.523 346.444C498.458 329.827 454.286 350.989 454.286 350.989L437.12 358.065ZM428.665 380.166C420.807 381.622 425.969 386.195 456.384 392.7C470.637 395.762 499.869 401.409 496.881 383.174C494.02 365.591 446.796 376.941 446.796 376.941L428.665 380.166ZM419.205 407.152C412.516 408.187 416.789 412.174 442.359 418.434C454.349 421.373 478.953 426.885 476.817 411.33C474.782 396.361 434.603 404.825 434.603 404.825L419.205 407.152ZM412.021 432.152C405.472 433.934 410.113 437.418 436.179 440.739C448.386 442.29 473.396 444.985 469.747 429.756C466.225 415.141 427.113 428.083 427.113 428.083L412.021 432.152ZM450.344 330.943C446.529 340.088 454.451 338.7 481.382 313.551C493.995 301.752 519.298 277.066 499.259 264.777C480.021 252.965 459.334 309.959 459.334 309.959L450.344 330.943ZM413.012 464.717C408.982 467.235 412.936 468.215 431.424 464.268C440.096 462.431 457.731 458.348 451.768 450.292C445.995 442.535 422.345 458.866 422.345 458.866L413.012 464.717Z" fill="white"/>
<path d="M440.477 349.301L437.387 294.281L440.477 349.301ZM430.699 367.455L411.169 320.138L430.699 367.455ZM481.102 353.697L434.297 360.882L481.102 353.697ZM420.578 392.958L395.237 358.161L420.578 392.958ZM425.028 382.289L459.944 384.167L425.028 382.289ZM416.763 408.976L443.465 411.806L416.763 408.976ZM410.317 425.932L397.055 404.58L410.317 425.932ZM408.791 433.472L440.185 433.785L408.791 433.472ZM402.433 496.507C402.644 496.49 402.839 496.384 402.977 496.214C403.115 496.043 403.185 495.821 403.171 495.596C401.175 463.506 412.771 410.949 431.373 367.809C443.262 340.238 489.863 286.048 490.358 285.503C490.508 285.343 490.592 285.125 490.592 284.898C490.592 284.671 490.508 284.453 490.358 284.292C490.285 284.213 490.198 284.151 490.102 284.108C490.006 284.065 489.903 284.043 489.799 284.043C489.695 284.043 489.592 284.065 489.496 284.108C489.4 284.151 489.313 284.213 489.239 284.292C488.769 284.837 441.977 339.231 429.987 367.047C411.041 411.235 399.598 462.839 401.632 495.704C401.648 495.921 401.739 496.124 401.887 496.272C402.036 496.421 402.23 496.505 402.433 496.507ZM440.464 350.145C440.675 350.131 440.871 350.029 441.012 349.861C441.152 349.693 441.225 349.472 441.214 349.247L438.176 294.199C438.171 294.087 438.145 293.977 438.1 293.876C438.055 293.775 437.992 293.684 437.913 293.609C437.835 293.535 437.744 293.477 437.645 293.441C437.546 293.404 437.441 293.389 437.336 293.397C437.126 293.411 436.929 293.513 436.789 293.681C436.649 293.849 436.576 294.07 436.586 294.295L439.676 349.315C439.686 349.532 439.773 349.736 439.92 349.885C440.067 350.035 440.262 350.118 440.464 350.118V350.145ZM430.979 368.231C431.169 368.139 431.319 367.97 431.395 367.762C431.471 367.553 431.467 367.321 431.386 367.115L411.843 319.798C411.758 319.592 411.601 319.43 411.406 319.349C411.21 319.267 410.992 319.272 410.8 319.362C410.608 319.452 410.457 319.621 410.381 319.83C410.304 320.039 410.309 320.272 410.393 320.478L429.923 367.796C429.985 367.947 430.086 368.077 430.214 368.169C430.343 368.261 430.494 368.311 430.648 368.313C430.78 368.32 430.911 368.292 431.03 368.231H430.979ZM434.361 361.699L481.14 354.541C481.253 354.538 481.364 354.51 481.466 354.458C481.568 354.407 481.659 354.332 481.732 354.24C481.806 354.148 481.86 354.041 481.892 353.925C481.924 353.809 481.932 353.687 481.917 353.567C481.902 353.447 481.863 353.332 481.803 353.23C481.743 353.127 481.664 353.039 481.57 352.972C481.476 352.904 481.37 352.859 481.259 352.839C481.147 352.818 481.033 352.823 480.924 352.853L434.145 360.011C433.936 360.026 433.741 360.129 433.602 360.297C433.464 360.465 433.394 360.686 433.407 360.91C433.421 361.133 433.517 361.342 433.674 361.49C433.832 361.638 434.038 361.713 434.247 361.699H434.361ZM421.023 393.639C421.189 393.499 421.297 393.295 421.323 393.071C421.349 392.846 421.292 392.62 421.163 392.441L395.809 357.575C395.679 357.395 395.487 357.277 395.276 357.248C395.065 357.218 394.852 357.28 394.683 357.419C394.515 357.558 394.405 357.763 394.377 357.989C394.35 358.215 394.407 358.443 394.537 358.623L419.942 393.543C420.016 393.645 420.11 393.727 420.218 393.784C420.326 393.841 420.445 393.87 420.565 393.87C420.755 393.86 420.935 393.778 421.074 393.639H421.023ZM460.643 384.208C460.65 383.983 460.574 383.764 460.431 383.598C460.288 383.433 460.091 383.334 459.88 383.323L425.028 381.432C424.832 381.446 424.648 381.537 424.511 381.687C424.373 381.837 424.292 382.036 424.283 382.246C424.274 382.456 424.336 382.662 424.46 382.825C424.583 382.989 424.758 383.098 424.952 383.133L459.868 385.024C460.078 385.032 460.283 384.95 460.437 384.797C460.592 384.645 460.684 384.433 460.694 384.208H460.643ZM444.203 411.888C444.215 411.776 444.206 411.663 444.177 411.554C444.147 411.446 444.098 411.345 444.032 411.258C443.965 411.17 443.883 411.098 443.79 411.045C443.697 410.992 443.595 410.959 443.49 410.949L416.789 408.132C416.685 408.121 416.58 408.132 416.481 408.164C416.381 408.196 416.288 408.249 416.208 408.32C416.128 408.391 416.061 408.478 416.012 408.577C415.964 408.675 415.934 408.783 415.924 408.894C415.906 409.117 415.971 409.339 416.104 409.512C416.237 409.685 416.428 409.795 416.636 409.819L443.338 412.65H443.414C443.619 412.665 443.822 412.594 443.979 412.452C444.135 412.309 444.234 412.107 444.253 411.888H444.203ZM410.698 426.64C410.875 426.515 410.998 426.32 411.041 426.098C411.084 425.877 411.043 425.646 410.927 425.456L397.729 404.104C397.608 403.92 397.425 403.793 397.219 403.75C397.013 403.707 396.799 403.751 396.623 403.872C396.446 403.997 396.323 404.192 396.28 404.414C396.237 404.636 396.278 404.867 396.394 405.056L409.592 426.409C409.667 426.525 409.768 426.621 409.885 426.687C410.003 426.754 410.133 426.789 410.266 426.79C410.438 426.8 410.608 426.747 410.749 426.64H410.698ZM440.986 433.785C440.982 433.561 440.899 433.346 440.752 433.187C440.605 433.027 440.406 432.934 440.197 432.927L408.804 432.614C408.595 432.614 408.394 432.703 408.246 432.861C408.098 433.02 408.015 433.234 408.015 433.458C408.012 433.57 408.03 433.682 408.068 433.787C408.106 433.892 408.164 433.987 408.238 434.068C408.311 434.148 408.4 434.211 408.497 434.254C408.594 434.296 408.699 434.317 408.804 434.315L440.197 434.628C440.305 434.634 440.412 434.616 440.513 434.576C440.613 434.537 440.706 434.475 440.784 434.397C440.862 434.318 440.925 434.223 440.968 434.118C441.012 434.013 441.035 433.899 441.036 433.785H440.986ZM398.86 484.028C398.924 483.878 404.277 468.092 420.374 464.323C420.582 464.274 420.762 464.139 420.877 463.947C420.991 463.756 421.03 463.524 420.985 463.302C420.933 463.084 420.806 462.896 420.628 462.777C420.45 462.658 420.236 462.617 420.031 462.662C403.056 466.636 397.424 483.307 397.36 483.47C397.295 483.685 397.31 483.919 397.402 484.122C397.495 484.325 397.657 484.482 397.856 484.559H398.11C398.279 484.574 398.449 484.531 398.593 484.436C398.737 484.34 398.849 484.197 398.911 484.028H398.86ZM402.433 496.507C402.644 496.49 402.839 496.384 402.977 496.214C403.115 496.043 403.185 495.821 403.171 495.596C401.175 463.506 412.771 410.949 431.373 367.809C443.262 340.238 489.863 286.048 490.358 285.503C490.508 285.343 490.592 285.125 490.592 284.898C490.592 284.671 490.508 284.453 490.358 284.292C490.285 284.213 490.198 284.151 490.102 284.108C490.006 284.065 489.903 284.043 489.799 284.043C489.695 284.043 489.592 284.065 489.496 284.108C489.4 284.151 489.313 284.213 489.239 284.292C488.769 284.837 441.977 339.231 429.987 367.047C411.041 411.235 399.598 462.839 401.632 495.704C401.648 495.921 401.739 496.124 401.887 496.272C402.036 496.421 402.23 496.505 402.433 496.507ZM440.464 350.145C440.675 350.131 440.871 350.029 441.012 349.861C441.152 349.693 441.225 349.472 441.214 349.247L438.176 294.199C438.171 294.087 438.145 293.977 438.1 293.876C438.055 293.775 437.992 293.684 437.913 293.609C437.835 293.535 437.744 293.477 437.645 293.441C437.546 293.404 437.441 293.389 437.336 293.397C437.126 293.411 436.929 293.513 436.789 293.681C436.649 293.849 436.576 294.07 436.586 294.295L439.676 349.315C439.686 349.532 439.773 349.736 439.92 349.885C440.067 350.035 440.262 350.118 440.464 350.118V350.145ZM430.979 368.231C431.169 368.139 431.319 367.97 431.395 367.762C431.471 367.553 431.467 367.321 431.386 367.115L411.843 319.798C411.758 319.592 411.601 319.43 411.406 319.349C411.21 319.267 410.992 319.272 410.8 319.362C410.608 319.452 410.457 319.621 410.381 319.83C410.304 320.039 410.309 320.272 410.393 320.478L429.923 367.796C429.985 367.947 430.086 368.077 430.214 368.169C430.343 368.261 430.494 368.311 430.648 368.313C430.78 368.32 430.911 368.292 431.03 368.231H430.979ZM434.361 361.699L481.14 354.541C481.253 354.538 481.364 354.51 481.466 354.458C481.568 354.407 481.659 354.332 481.732 354.24C481.806 354.148 481.86 354.041 481.892 353.925C481.924 353.809 481.932 353.687 481.917 353.567C481.902 353.447 481.863 353.332 481.803 353.23C481.743 353.127 481.664 353.039 481.57 352.972C481.476 352.904 481.37 352.859 481.259 352.839C481.147 352.818 481.033 352.823 480.924 352.853L434.145 360.011C433.936 360.026 433.741 360.129 433.602 360.297C433.464 360.465 433.394 360.686 433.407 360.91C433.421 361.133 433.517 361.342 433.674 361.49C433.832 361.638 434.038 361.713 434.247 361.699H434.361ZM421.023 393.639C421.189 393.499 421.297 393.295 421.323 393.071C421.349 392.846 421.292 392.62 421.163 392.441L395.809 357.575C395.744 357.486 395.664 357.411 395.573 357.355C395.482 357.299 395.381 357.262 395.276 357.248C395.172 357.233 395.066 357.241 394.964 357.27C394.862 357.3 394.767 357.35 394.683 357.419C394.6 357.488 394.53 357.573 394.477 357.671C394.425 357.769 394.391 357.877 394.377 357.989C394.364 358.101 394.371 358.214 394.398 358.323C394.426 358.432 394.473 358.534 394.537 358.623L419.942 393.543C420.016 393.645 420.11 393.727 420.218 393.784C420.326 393.841 420.445 393.87 420.565 393.87C420.755 393.86 420.935 393.778 421.074 393.639H421.023ZM460.643 384.208C460.65 383.983 460.574 383.764 460.431 383.598C460.288 383.433 460.091 383.334 459.88 383.323L425.028 381.432C424.832 381.446 424.648 381.537 424.511 381.687C424.373 381.837 424.292 382.036 424.283 382.246C424.274 382.456 424.336 382.662 424.46 382.825C424.583 382.989 424.758 383.098 424.952 383.133L459.868 385.024C460.078 385.032 460.283 384.95 460.437 384.797C460.592 384.645 460.684 384.433 460.694 384.208H460.643ZM444.203 411.888C444.215 411.776 444.206 411.663 444.177 411.554C444.147 411.446 444.098 411.345 444.032 411.258C443.965 411.17 443.883 411.098 443.79 411.045C443.697 410.992 443.595 410.959 443.49 410.949L416.789 408.132C416.685 408.121 416.58 408.132 416.481 408.164C416.381 408.196 416.288 408.249 416.208 408.32C416.128 408.391 416.061 408.478 416.012 408.577C415.964 408.675 415.934 408.783 415.924 408.894C415.906 409.117 415.971 409.339 416.104 409.512C416.237 409.685 416.428 409.795 416.636 409.819L443.338 412.65H443.414C443.619 412.665 443.822 412.594 443.979 412.452C444.135 412.309 444.234 412.107 444.253 411.888H444.203ZM410.698 426.64C410.875 426.515 410.998 426.32 411.041 426.098C411.084 425.877 411.043 425.646 410.927 425.456L397.729 404.104C397.608 403.92 397.425 403.793 397.219 403.75C397.013 403.707 396.799 403.751 396.623 403.872C396.446 403.997 396.323 404.192 396.28 404.414C396.237 404.636 396.278 404.867 396.394 405.056L409.592 426.409C409.667 426.525 409.768 426.621 409.885 426.687C410.003 426.754 410.133 426.789 410.266 426.79C410.438 426.8 410.608 426.747 410.749 426.64H410.698ZM440.986 433.785C440.982 433.561 440.899 433.346 440.752 433.187C440.605 433.027 440.406 432.934 440.197 432.927L408.804 432.614C408.595 432.614 408.394 432.703 408.246 432.861C408.098 433.02 408.015 433.234 408.015 433.458C408.012 433.57 408.03 433.682 408.068 433.787C408.106 433.892 408.164 433.987 408.238 434.068C408.311 434.148 408.4 434.211 408.497 434.254C408.594 434.296 408.699 434.317 408.804 434.315L440.197 434.628C440.305 434.634 440.412 434.616 440.513 434.576C440.613 434.537 440.706 434.475 440.784 434.397C440.862 434.318 440.925 434.223 440.968 434.118C441.012 434.013 441.035 433.899 441.036 433.785H440.986ZM398.86 484.028C398.924 483.878 404.277 468.092 420.374 464.323C420.582 464.274 420.762 464.139 420.877 463.947C420.991 463.756 421.03 463.524 420.985 463.302C420.933 463.084 420.806 462.896 420.628 462.777C420.45 462.658 420.236 462.617 420.031 462.662C403.056 466.636 397.424 483.307 397.36 483.47C397.295 483.685 397.31 483.919 397.402 484.122C397.495 484.325 397.657 484.482 397.856 484.559H398.11C398.279 484.574 398.449 484.531 398.593 484.436C398.737 484.34 398.849 484.197 398.911 484.028H398.86Z" fill="#92E3A9"/>
<path opacity="0.2" d="M440.477 349.301L437.387 294.281L440.477 349.301ZM430.699 367.455L411.169 320.138L430.699 367.455ZM481.102 353.697L434.297 360.882L481.102 353.697ZM420.578 392.958L395.237 358.161L420.578 392.958ZM425.028 382.289L459.944 384.167L425.028 382.289ZM416.763 408.976L443.465 411.806L416.763 408.976ZM410.317 425.932L397.055 404.58L410.317 425.932ZM408.791 433.472L440.185 433.785L408.791 433.472ZM402.433 496.507C402.644 496.49 402.839 496.384 402.977 496.214C403.115 496.043 403.185 495.821 403.171 495.596C401.175 463.506 412.771 410.949 431.373 367.809C443.262 340.238 489.863 286.048 490.358 285.503C490.508 285.343 490.592 285.125 490.592 284.898C490.592 284.671 490.508 284.453 490.358 284.292C490.285 284.213 490.198 284.151 490.102 284.108C490.006 284.065 489.903 284.043 489.799 284.043C489.695 284.043 489.592 284.065 489.496 284.108C489.4 284.151 489.313 284.213 489.239 284.292C488.769 284.837 441.977 339.231 429.987 367.047C411.041 411.235 399.598 462.839 401.632 495.704C401.648 495.921 401.739 496.124 401.887 496.272C402.036 496.421 402.23 496.505 402.433 496.507ZM440.464 350.145C440.675 350.131 440.871 350.029 441.012 349.861C441.152 349.693 441.225 349.472 441.214 349.247L438.176 294.199C438.171 294.087 438.145 293.977 438.1 293.876C438.055 293.775 437.992 293.684 437.913 293.609C437.835 293.535 437.744 293.477 437.645 293.441C437.546 293.404 437.441 293.389 437.336 293.397C437.126 293.411 436.929 293.513 436.789 293.681C436.649 293.849 436.576 294.07 436.586 294.295L439.676 349.315C439.686 349.532 439.773 349.736 439.92 349.885C440.067 350.035 440.262 350.118 440.464 350.118V350.145ZM430.979 368.231C431.169 368.139 431.319 367.97 431.395 367.762C431.471 367.553 431.467 367.321 431.386 367.115L411.843 319.798C411.758 319.592 411.601 319.43 411.406 319.349C411.21 319.267 410.992 319.272 410.8 319.362C410.608 319.452 410.457 319.621 410.381 319.83C410.304 320.039 410.309 320.272 410.393 320.478L429.923 367.796C429.985 367.947 430.086 368.077 430.214 368.169C430.343 368.261 430.494 368.311 430.648 368.313C430.78 368.32 430.911 368.292 431.03 368.231H430.979ZM434.361 361.699L481.14 354.541C481.253 354.538 481.364 354.51 481.466 354.458C481.568 354.407 481.659 354.332 481.732 354.24C481.806 354.148 481.86 354.041 481.892 353.925C481.924 353.809 481.932 353.687 481.917 353.567C481.902 353.447 481.863 353.332 481.803 353.23C481.743 353.127 481.664 353.039 481.57 352.972C481.476 352.904 481.37 352.859 481.259 352.839C481.147 352.818 481.033 352.823 480.924 352.853L434.145 360.011C433.936 360.026 433.741 360.129 433.602 360.297C433.464 360.465 433.394 360.686 433.407 360.91C433.421 361.133 433.517 361.342 433.674 361.49C433.832 361.638 434.038 361.713 434.247 361.699H434.361ZM421.023 393.639C421.189 393.499 421.297 393.295 421.323 393.071C421.349 392.846 421.292 392.62 421.163 392.441L395.809 357.575C395.679 357.395 395.487 357.277 395.276 357.248C395.065 357.218 394.852 357.28 394.683 357.419C394.515 357.558 394.405 357.763 394.377 357.989C394.35 358.215 394.407 358.443 394.537 358.623L419.942 393.543C420.016 393.645 420.11 393.727 420.218 393.784C420.326 393.841 420.445 393.87 420.565 393.87C420.755 393.86 420.935 393.778 421.074 393.639H421.023ZM460.643 384.208C460.65 383.983 460.574 383.764 460.431 383.598C460.288 383.433 460.091 383.334 459.88 383.323L425.028 381.432C424.832 381.446 424.648 381.537 424.511 381.687C424.373 381.837 424.292 382.036 424.283 382.246C424.274 382.456 424.336 382.662 424.46 382.825C424.583 382.989 424.758 383.098 424.952 383.133L459.868 385.024C460.078 385.032 460.283 384.95 460.437 384.797C460.592 384.645 460.684 384.433 460.694 384.208H460.643ZM444.203 411.888C444.215 411.776 444.206 411.663 444.177 411.554C444.147 411.446 444.098 411.345 444.032 411.258C443.965 411.17 443.883 411.098 443.79 411.045C443.697 410.992 443.595 410.959 443.49 410.949L416.789 408.132C416.685 408.121 416.58 408.132 416.481 408.164C416.381 408.196 416.288 408.249 416.208 408.32C416.128 408.391 416.061 408.478 416.012 408.577C415.964 408.675 415.934 408.783 415.924 408.894C415.906 409.117 415.971 409.339 416.104 409.512C416.237 409.685 416.428 409.795 416.636 409.819L443.338 412.65H443.414C443.619 412.665 443.822 412.594 443.979 412.452C444.135 412.309 444.234 412.107 444.253 411.888H444.203ZM410.698 426.64C410.875 426.515 410.998 426.32 411.041 426.098C411.084 425.877 411.043 425.646 410.927 425.456L397.729 404.104C397.608 403.92 397.425 403.793 397.219 403.75C397.013 403.707 396.799 403.751 396.623 403.872C396.446 403.997 396.323 404.192 396.28 404.414C396.237 404.636 396.278 404.867 396.394 405.056L409.592 426.409C409.667 426.525 409.768 426.621 409.885 426.687C410.003 426.754 410.133 426.789 410.266 426.79C410.438 426.8 410.608 426.747 410.749 426.64H410.698ZM440.986 433.785C440.982 433.561 440.899 433.346 440.752 433.187C440.605 433.027 440.406 432.934 440.197 432.927L408.804 432.614C408.595 432.614 408.394 432.703 408.246 432.861C408.098 433.02 408.015 433.234 408.015 433.458C408.012 433.57 408.03 433.682 408.068 433.787C408.106 433.892 408.164 433.987 408.238 434.068C408.311 434.148 408.4 434.211 408.497 434.254C408.594 434.296 408.699 434.317 408.804 434.315L440.197 434.628C440.305 434.634 440.412 434.616 440.513 434.576C440.613 434.537 440.706 434.475 440.784 434.397C440.862 434.318 440.925 434.223 440.968 434.118C441.012 434.013 441.035 433.899 441.036 433.785H440.986ZM398.86 484.028C398.924 483.878 404.277 468.092 420.374 464.323C420.582 464.274 420.762 464.139 420.877 463.947C420.991 463.756 421.03 463.524 420.985 463.302C420.933 463.084 420.806 462.896 420.628 462.777C420.45 462.658 420.236 462.617 420.031 462.662C403.056 466.636 397.424 483.307 397.36 483.47C397.295 483.685 397.31 483.919 397.402 484.122C397.495 484.325 397.657 484.482 397.856 484.559H398.11C398.279 484.574 398.449 484.531 398.593 484.436C398.737 484.34 398.849 484.197 398.911 484.028H398.86ZM402.433 496.507C402.644 496.49 402.839 496.384 402.977 496.214C403.115 496.043 403.185 495.821 403.171 495.596C401.175 463.506 412.771 410.949 431.373 367.809C443.262 340.238 489.863 286.048 490.358 285.503C490.508 285.343 490.592 285.125 490.592 284.898C490.592 284.671 490.508 284.453 490.358 284.292C490.285 284.213 490.198 284.151 490.102 284.108C490.006 284.065 489.903 284.043 489.799 284.043C489.695 284.043 489.592 284.065 489.496 284.108C489.4 284.151 489.313 284.213 489.239 284.292C488.769 284.837 441.977 339.231 429.987 367.047C411.041 411.235 399.598 462.839 401.632 495.704C401.648 495.921 401.739 496.124 401.887 496.272C402.036 496.421 402.23 496.505 402.433 496.507ZM440.464 350.145C440.675 350.131 440.871 350.029 441.012 349.861C441.152 349.693 441.225 349.472 441.214 349.247L438.176 294.199C438.171 294.087 438.145 293.977 438.1 293.876C438.055 293.775 437.992 293.684 437.913 293.609C437.835 293.535 437.744 293.477 437.645 293.441C437.546 293.404 437.441 293.389 437.336 293.397C437.126 293.411 436.929 293.513 436.789 293.681C436.649 293.849 436.576 294.07 436.586 294.295L439.676 349.315C439.686 349.532 439.773 349.736 439.92 349.885C440.067 350.035 440.262 350.118 440.464 350.118V350.145ZM430.979 368.231C431.169 368.139 431.319 367.97 431.395 367.762C431.471 367.553 431.467 367.321 431.386 367.115L411.843 319.798C411.758 319.592 411.601 319.43 411.406 319.349C411.21 319.267 410.992 319.272 410.8 319.362C410.608 319.452 410.457 319.621 410.381 319.83C410.304 320.039 410.309 320.272 410.393 320.478L429.923 367.796C429.985 367.947 430.086 368.077 430.214 368.169C430.343 368.261 430.494 368.311 430.648 368.313C430.78 368.32 430.911 368.292 431.03 368.231H430.979ZM434.361 361.699L481.14 354.541C481.253 354.538 481.364 354.51 481.466 354.458C481.568 354.407 481.659 354.332 481.732 354.24C481.806 354.148 481.86 354.041 481.892 353.925C481.924 353.809 481.932 353.687 481.917 353.567C481.902 353.447 481.863 353.332 481.803 353.23C481.743 353.127 481.664 353.039 481.57 352.972C481.476 352.904 481.37 352.859 481.259 352.839C481.147 352.818 481.033 352.823 480.924 352.853L434.145 360.011C433.936 360.026 433.741 360.129 433.602 360.297C433.464 360.465 433.394 360.686 433.407 360.91C433.421 361.133 433.517 361.342 433.674 361.49C433.832 361.638 434.038 361.713 434.247 361.699H434.361ZM421.023 393.639C421.189 393.499 421.297 393.295 421.323 393.071C421.349 392.846 421.292 392.62 421.163 392.441L395.809 357.575C395.744 357.486 395.664 357.411 395.573 357.355C395.482 357.299 395.381 357.262 395.276 357.248C395.172 357.233 395.066 357.241 394.964 357.27C394.862 357.3 394.767 357.35 394.683 357.419C394.6 357.488 394.53 357.573 394.477 357.671C394.425 357.769 394.391 357.877 394.377 357.989C394.364 358.101 394.371 358.214 394.398 358.323C394.426 358.432 394.473 358.534 394.537 358.623L419.942 393.543C420.016 393.645 420.11 393.727 420.218 393.784C420.326 393.841 420.445 393.87 420.565 393.87C420.755 393.86 420.935 393.778 421.074 393.639H421.023ZM460.643 384.208C460.65 383.983 460.574 383.764 460.431 383.598C460.288 383.433 460.091 383.334 459.88 383.323L425.028 381.432C424.832 381.446 424.648 381.537 424.511 381.687C424.373 381.837 424.292 382.036 424.283 382.246C424.274 382.456 424.336 382.662 424.46 382.825C424.583 382.989 424.758 383.098 424.952 383.133L459.868 385.024C460.078 385.032 460.283 384.95 460.437 384.797C460.592 384.645 460.684 384.433 460.694 384.208H460.643ZM444.203 411.888C444.215 411.776 444.206 411.663 444.177 411.554C444.147 411.446 444.098 411.345 444.032 411.258C443.965 411.17 443.883 411.098 443.79 411.045C443.697 410.992 443.595 410.959 443.49 410.949L416.789 408.132C416.685 408.121 416.58 408.132 416.481 408.164C416.381 408.196 416.288 408.249 416.208 408.32C416.128 408.391 416.061 408.478 416.012 408.577C415.964 408.675 415.934 408.783 415.924 408.894C415.906 409.117 415.971 409.339 416.104 409.512C416.237 409.685 416.428 409.795 416.636 409.819L443.338 412.65H443.414C443.619 412.665 443.822 412.594 443.979 412.452C444.135 412.309 444.234 412.107 444.253 411.888H444.203ZM410.698 426.64C410.875 426.515 410.998 426.32 411.041 426.098C411.084 425.877 411.043 425.646 410.927 425.456L397.729 404.104C397.608 403.92 397.425 403.793 397.219 403.75C397.013 403.707 396.799 403.751 396.623 403.872C396.446 403.997 396.323 404.192 396.28 404.414C396.237 404.636 396.278 404.867 396.394 405.056L409.592 426.409C409.667 426.525 409.768 426.621 409.885 426.687C410.003 426.754 410.133 426.789 410.266 426.79C410.438 426.8 410.608 426.747 410.749 426.64H410.698ZM440.986 433.785C440.982 433.561 440.899 433.346 440.752 433.187C440.605 433.027 440.406 432.934 440.197 432.927L408.804 432.614C408.595 432.614 408.394 432.703 408.246 432.861C408.098 433.02 408.015 433.234 408.015 433.458C408.012 433.57 408.03 433.682 408.068 433.787C408.106 433.892 408.164 433.987 408.238 434.068C408.311 434.148 408.4 434.211 408.497 434.254C408.594 434.296 408.699 434.317 408.804 434.315L440.197 434.628C440.305 434.634 440.412 434.616 440.513 434.576C440.613 434.537 440.706 434.475 440.784 434.397C440.862 434.318 440.925 434.223 440.968 434.118C441.012 434.013 441.035 433.899 441.036 433.785H440.986ZM398.86 484.028C398.924 483.878 404.277 468.092 420.374 464.323C420.582 464.274 420.762 464.139 420.877 463.947C420.991 463.756 421.03 463.524 420.985 463.302C420.933 463.084 420.806 462.896 420.628 462.777C420.45 462.658 420.236 462.617 420.031 462.662C403.056 466.636 397.424 483.307 397.36 483.47C397.295 483.685 397.31 483.919 397.402 484.122C397.495 484.325 397.657 484.482 397.856 484.559H398.11C398.279 484.574 398.449 484.531 398.593 484.436C398.737 484.34 398.849 484.197 398.911 484.028H398.86Z" fill="black"/>
<path d="M423.197 472.515H387.201V480.49H390.341L396.839 523.997H413.559L420.057 480.49H423.197V472.515Z" fill="#92E3A9"/>
<path opacity="0.3" d="M423.197 472.515H387.201V480.49H390.341L396.839 523.997H413.559L420.057 480.49H423.197V472.515Z" fill="white"/>
<path d="M99.1142 231.368L57.2433 216.739L53.5178 206.206L45.0114 205.92L29.5752 202.79L31.4316 206.206L50.8603 221.298L55.6539 223.856L99.4448 248.338L99.1142 231.368Z" fill="white" stroke="#263238" stroke-width="1.00396" stroke-miterlimit="10"/>
<path d="M53.5177 206.205L49.5251 203.647L41.5527 206.777L42.8751 208.478L53.5177 206.205Z" fill="white" stroke="#263238" stroke-width="1.00396" stroke-linejoin="round"/>
<path d="M99.1142 231.368L57.2433 216.739L53.5178 206.206L45.0114 205.92L29.5752 202.79L31.4316 206.206L50.8603 221.298L55.6539 223.856L99.4448 248.338L99.1142 231.368Z" fill="white"/>
<path opacity="0.5" d="M99.1142 231.368L57.2433 216.739L53.5178 206.206L45.0114 205.92L29.5752 202.79L31.4316 206.206L50.8603 221.298L55.6539 223.856L99.4448 248.338L99.1142 231.368Z" fill="#92E3A9" stroke="#263238" stroke-width="1.00396" stroke-miterlimit="10"/>
<path d="M99.1142 231.368L57.2433 216.739L53.5178 206.206L45.0114 205.92L29.5752 202.79L31.4316 206.206L50.8603 221.298L55.6539 223.856L99.4448 248.338L99.1142 231.368Z" stroke="#263238" stroke-width="1.00396" stroke-miterlimit="10"/>
<path d="M53.5177 206.205L49.5251 203.647L41.5527 206.777L42.8751 208.478L53.5177 206.205Z" fill="white"/>
<path opacity="0.5" d="M53.5177 206.205L49.5251 203.647L41.5527 206.777L42.8751 208.478L53.5177 206.205Z" fill="#92E3A9" stroke="#263238" stroke-width="1.00396" stroke-linejoin="round"/>
<path d="M53.5177 206.205L49.5251 203.647L41.5527 206.777L42.8751 208.478L53.5177 206.205Z" stroke="#263238" stroke-width="1.00396" stroke-linejoin="round"/>
<path d="M108.002 136.42C108.002 136.42 107.353 142.544 108.968 146.477C110.583 150.409 119.547 163.732 119.547 163.732L102.814 178.09C102.814 178.09 95.8717 163.12 94.5493 160.698C93.2269 158.275 91.6376 147.851 95.948 140.38C100.258 132.909 106.463 130.895 108.002 136.42Z" fill="white"/>
<g style="mix-blend-mode:multiply" opacity="0.5">
<path d="M99.4065 156.098L106.667 172.211L102.801 178.103L95.5029 164.154L99.4065 156.098Z" fill="#92E3A9"/>
</g>
<path d="M108.002 136.42C108.002 136.42 107.353 142.544 108.968 146.477C110.583 150.409 119.547 163.732 119.547 163.732L102.814 178.09C102.814 178.09 95.8717 163.12 94.5493 160.698C93.2269 158.275 91.6376 147.851 95.948 140.38C100.258 132.909 106.463 130.895 108.002 136.42Z" stroke="#263238" stroke-width="1.00396" stroke-miterlimit="10"/>
<path d="M113.19 125.206C112.16 118.402 104.874 104.561 93.316 105.092C85.8141 105.446 82.3047 107.066 79.0497 109.039C76.3964 110.712 73.9232 112.693 71.6749 114.945C66.0294 122.198 64.0458 124.185 65.1393 129.738C65.0496 131.952 65.3738 134.164 66.093 136.243C67.8222 141.183 69.0047 144.408 70.5051 146.762C70.0474 149.062 68.8521 155.132 68.7886 156.52C68.725 157.908 72.6031 156.942 74.5612 156.411C78.1978 165.12 84.8605 171.163 86.933 171.857C90.5441 173.068 96.2532 166.713 99.2794 161.786C102.306 156.86 100.017 151.321 100.03 149.117C100.042 146.912 106.832 142.067 109.35 140.529C111.867 138.992 114.207 131.997 113.19 125.206Z" fill="white"/>
<g style="mix-blend-mode:multiply" opacity="0.5">
<path d="M65.1898 129.738C65.1001 131.953 65.4243 134.164 66.1434 136.243C67.8727 141.183 69.0552 144.408 70.5556 146.762C70.0978 149.062 68.9026 155.132 68.839 156.52C68.7754 157.908 72.6536 156.942 74.6117 156.411C78.2482 165.121 84.9109 171.163 86.9835 171.857C90.5946 173.068 96.3037 166.713 99.3299 161.787C100.086 160.557 100.577 159.162 100.767 157.704C100.601 157.064 100.487 156.67 100.487 156.67C100.487 156.67 98.7831 163.678 95.4009 162.766C92.0187 161.855 86.8436 154.601 83.9573 152.097C81.071 149.593 82.2535 146.3 81.6813 142.571C81.1091 138.842 72.5645 135.562 71.9924 133.426C71.4202 131.289 73.4165 122.444 73.4165 122.444C73.4165 122.444 76.6588 117.817 75.9595 119.722C75.4652 121.374 75.2859 123.115 75.4323 124.843C75.5786 126.57 76.0476 128.249 76.8114 129.779C77.3474 130.986 78.1976 132.002 79.26 132.704C80.3224 133.407 81.5517 133.766 82.8002 133.739L85.9027 117.286L79.3544 111.489L71.7254 114.891C66.029 122.199 64.0836 124.185 65.1898 129.738Z" fill="#92E3A9"/>
</g>
<path d="M113.19 125.206C112.16 118.402 104.874 104.561 93.316 105.092C85.8141 105.446 82.3047 107.066 79.0497 109.039C76.3964 110.712 73.9232 112.693 71.6749 114.945C66.0294 122.198 64.0458 124.185 65.1393 129.738C65.0496 131.952 65.3738 134.164 66.093 136.243C67.8222 141.183 69.0047 144.408 70.5051 146.762C70.0474 149.062 68.8521 155.132 68.7886 156.52C68.725 157.908 72.6031 156.942 74.5612 156.411C78.1978 165.12 84.8605 171.163 86.933 171.857C90.5441 173.068 96.2532 166.713 99.2794 161.786C102.306 156.86 100.017 151.321 100.03 149.117C100.042 146.912 106.832 142.067 109.35 140.529C111.867 138.992 114.207 131.997 113.19 125.206Z" stroke="#263238" stroke-miterlimit="10"/>
<path d="M72.0815 142.652L73.3531 146.544C73.3531 146.544 76.0868 147.511 79.4182 143.619" stroke="#263238" stroke-miterlimit="10" stroke-linecap="round"/>
<path d="M81.478 160.834C81.478 160.834 84.5042 160.507 85.7249 155.962" stroke="#263238" stroke-miterlimit="10" stroke-linecap="round"/>
<path d="M69.958 139.4C69.958 139.4 70.8608 136.474 76.3156 136.474" stroke="#263238" stroke-miterlimit="10" stroke-linecap="round"/>
<path d="M97.9189 99.6758C93.9552 99.0658 89.9581 98.7385 85.9539 98.696C85.9539 98.696 73.9763 91.3065 62.4691 99.1859C50.9619 107.065 56.493 120.865 56.493 124.308C56.493 127.751 52.8056 127.764 55.1071 132.201C57.4085 136.637 65.1901 134.188 65.1901 134.188C65.2724 132.514 65.6855 130.879 66.4023 129.389C67.119 127.899 68.1231 126.59 69.348 125.546C73.4931 122.103 76.7991 121.355 78.1723 122.348C78.1723 122.348 77.2568 129.738 78.63 132.691C78.63 132.691 83.2329 135.154 84.6189 135.154C86.0048 135.154 83.7161 137.236 88.3062 139.087C89.1425 139.408 90.037 139.518 90.9195 139.407C91.802 139.296 92.6484 138.967 93.3923 138.447C94.0662 135.453 95.5411 130.949 98.2876 131.997C102.318 133.534 105.993 144.149 100.538 147.769C107.099 149.048 115.046 136.624 115.517 125.301C115.987 113.979 104.734 100.955 97.9189 99.6758Z" fill="#263238"/>
<path d="M78.376 117.49C78.376 117.49 81.7582 115.544 85.9033 119.708C90.0485 123.872 98.1098 129.438 108.791 126.376" stroke="white" stroke-width="0.5" stroke-linecap="round" stroke-linejoin="round"/>
<path d="M77.9053 114.156C77.9053 114.156 80.2321 110.263 84.123 110.263C88.0138 110.263 97.1051 116.102 104.365 116.102" stroke="white" stroke-width="0.5" stroke-linecap="round" stroke-linejoin="round"/>
<path d="M75.2604 121.654C75.2604 121.654 70.8483 115.83 66.7031 120.552C62.558 125.274 65.19 129.738 65.19 129.738" stroke="white" stroke-width="0.5" stroke-linecap="round" stroke-linejoin="round"/>
<path d="M57.6245 125.546C60.1529 123.106 61.7247 119.732 62.0239 116.102C62.5453 109.991 70.3396 104.711 75.2604 109.719" stroke="white" stroke-width="0.5" stroke-linecap="round" stroke-linejoin="round"/>
<path d="M65.6606 103.323C65.6606 103.323 73.455 95.2666 79.9397 105.541" stroke="white" stroke-width="0.5" stroke-linecap="round" stroke-linejoin="round"/>
<path d="M129.097 499.433C129.097 499.433 133.89 507.408 133.356 512.538L132.835 517.669C132.835 517.669 115.25 522.827 111.524 522.827C107.799 522.827 88.0778 520.826 88.0778 520.826L87.2259 517.206C87.1663 516.939 87.1944 516.658 87.3055 516.41C87.4166 516.162 87.604 515.963 87.8362 515.845L105.421 507.068L110.965 500.576L129.097 499.433Z" fill="white" stroke="#263238" stroke-width="1.00396" stroke-miterlimit="10"/>
<path d="M114.194 518.812C118.963 519.207 128.016 516.091 133.267 514.104L132.898 517.669C132.898 517.669 115.25 522.827 111.524 522.827C107.799 522.827 88.0776 520.826 88.0776 520.826L87.4673 518.241C90.6206 518.254 107.888 518.295 114.194 518.812Z" fill="#92E3A9" stroke="#263238" stroke-width="1.00396" stroke-miterlimit="10"/>
<path d="M105.446 507.068L79.8509 518.989C79.8509 518.989 77.6639 524.855 79.8509 526.025C82.0379 527.195 129.72 526.025 129.72 526.025C129.72 526.025 133.013 516.757 127.812 510.538C122.612 504.319 105.446 507.068 105.446 507.068Z" fill="white" stroke="#263238" stroke-width="1.00396" stroke-miterlimit="10"/>
<path d="M129.719 526.025C129.719 526.025 82.0374 527.195 79.8504 526.025C78.7951 525.453 78.7569 523.806 78.9985 522.241H130.558C130.39 523.528 130.109 524.794 129.719 526.025Z" fill="#92E3A9" stroke="#263238" stroke-width="1.00396" stroke-miterlimit="10"/>
<path d="M93.3413 299.929C93.3413 299.929 86.6532 331.651 84.1229 351.492C81.5926 371.334 80.1049 411.085 80.6389 415.644C81.173 420.203 107.798 496.589 107.798 496.589L110.456 503.393L129.096 499.406C129.096 499.406 120.577 470.338 117.386 454.375C114.194 438.412 107.214 412.188 107.214 407.629C107.214 403.07 123.743 316.001 124.926 310.285C126.108 304.569 131.474 295.792 131.474 295.792L95.7826 295.016L93.3413 299.929Z" fill="#92E3A9" stroke="#263238" stroke-width="1.00396" stroke-miterlimit="10"/>
<path d="M93.3413 299.929C93.3413 299.929 89.425 328.902 91.0399 349.043C92.6547 369.184 96.1259 412.065 96.1259 418.448C96.1259 424.83 105.751 462.948 106.298 474.924C107.15 492.221 105.955 500.781 105.955 500.781L105.383 507.054C105.383 507.054 116.61 508.769 119.064 509.517C121.898 510.299 124.823 510.638 127.748 510.524C127.748 510.524 131.83 491.295 131.83 474.91C131.83 458.525 128.435 424.803 126.744 411.14C125.053 397.477 130.38 344.77 133.407 334.931C136.433 325.092 143.045 304.257 138.594 293.614C134.144 282.972 93.3413 299.929 93.3413 299.929Z" fill="#92E3A9" stroke="#263238" stroke-width="1.00396" stroke-miterlimit="10"/>
<path d="M143.541 288.28L143.134 301.236C143.134 301.236 135.886 302.773 126.121 304.583C118.06 306.08 97.8173 304.189 91.002 303.481C90.3809 303.422 89.8067 303.103 89.4043 302.593C89.0018 302.084 88.8038 301.425 88.8531 300.759L89.5143 289.056L143.541 288.28Z" fill="#263238"/>
<path d="M115.212 159.133C115.212 159.133 103.768 172.374 99.4576 180.607C95.1472 188.841 93.4434 201.456 91.8286 211.39C90.2137 221.325 94.5878 244.65 93.3544 255.36L89.4508 289.096C89.4508 289.096 88.6116 291.383 91.4217 293.887C94.2317 296.391 107.951 297.303 120.349 297.969C124.875 298.214 138.391 295.098 140.604 294.948C143.274 294.771 143.363 291.138 143.477 288.28C144.011 274.848 146.275 239.043 147.762 223.448C150.827 191.644 134.055 160.943 115.212 159.133Z" fill="white" stroke="#263238" stroke-width="1.00396" stroke-miterlimit="10"/>
<g style="mix-blend-mode:multiply">
<path d="M146.363 241.534C146.872 234.471 147.38 228.061 147.825 223.448C147.953 222.087 148.029 220.726 148.092 219.365L117.691 224.809L91.5737 215.282C91.5766 221.066 91.8822 226.846 92.4892 232.593L118.11 240.268L146.363 241.534Z" fill="#92E3A9"/>
</g>
<g style="mix-blend-mode:multiply">
<path d="M114.08 160.466C112.351 162.521 108.918 166.699 105.65 171.136L124.951 192.134L131.309 189.412L114.08 160.466Z" fill="#92E3A9"/>
</g>
<path d="M115.211 159.133C115.211 159.133 103.768 172.374 99.4575 180.607C98.1793 183.11 97.144 185.745 96.3677 188.473L119.382 160.017C118.022 159.577 116.625 159.28 115.211 159.133Z" fill="#263238"/>
<g style="mix-blend-mode:multiply">
<path d="M92.7183 206.028L117.691 214.82L148.016 211.091C147.541 203.006 145.863 195.053 143.045 187.534L118.594 198.027L96.7362 187.425C94.949 193.506 93.6056 199.725 92.7183 206.028Z" fill="#92E3A9"/>
</g>
<g style="mix-blend-mode:multiply">
<path d="M135.709 274.848C123.043 277.124 110.046 275.987 97.8938 271.541L91.8032 269.309L89.9087 285.64L96.8511 287.722C110.049 291.671 123.843 292.809 137.451 291.069L143.058 290.348C143.35 289.687 143.514 288.97 143.541 288.239C143.694 284.605 143.961 279.325 144.304 273.269L135.709 274.848Z" fill="#92E3A9"/>
</g>
<g style="mix-blend-mode:multiply">
<path d="M139.103 252.611C126.437 254.896 113.438 253.755 101.289 249.291L93.5324 246.447C93.7247 249.412 93.6865 252.388 93.4179 255.347L92.5151 263.199L100.246 265.512C113.439 269.466 127.229 270.608 140.833 268.874L144.647 268.384C144.965 262.94 145.334 257.143 145.728 251.414L139.103 252.611Z" fill="#92E3A9"/>
</g>
<path d="M19.8113 195.063L44.3965 216.219L45.4561 214.808L20.871 193.652L19.8113 195.063Z" fill="#263238"/>
<path d="M127.049 173.817C127.049 173.817 136.064 180.39 136.267 195.917C136.356 202.722 135.695 209.077 134.233 220.223C132.771 231.368 123.692 267.663 116.623 272.072C109.553 276.481 98.5799 268.153 98.5799 268.153L45.5069 230.443L32.6774 219.352L26.3198 206.505L28.3161 202.422L43.9684 215.269L35.5383 206.927L37.1913 204.681L40.2429 206.954L49.1435 210.519L51.0889 224.128L53.8353 226.142L104.607 245.998C104.607 245.998 103.971 216.752 104.442 211.159C104.912 205.566 105.56 191.508 111.155 181.315" fill="white"/>
<g style="mix-blend-mode:multiply" opacity="0.5">
<path d="M104.251 223.897C104.251 233.994 104.569 245.997 104.569 245.997L53.8484 226.224L51.1019 224.21L49.1565 210.601L40.2559 207.035L37.217 204.722L35.564 206.967L43.9687 215.269L28.3164 202.422L26.4219 206.437L32.7794 219.283L45.609 230.443L48.8386 232.742L118.963 256.925L104.251 223.897Z" fill="#92E3A9"/>
</g>
<path d="M127.049 173.817C127.049 173.817 136.064 180.39 136.267 195.917C136.356 202.722 135.695 209.077 134.233 220.223C132.771 231.368 123.692 267.663 116.623 272.072C109.553 276.481 98.5799 268.153 98.5799 268.153L45.5069 230.443L32.6774 219.352L26.3198 206.505L28.3161 202.422L43.9684 215.269L35.5383 206.927L37.1913 204.681L40.2429 206.954L49.1435 210.519L51.0889 224.128L53.8353 226.142L104.607 245.998C104.607 245.998 103.971 216.752 104.442 211.159C104.912 205.566 105.56 191.508 111.155 181.315" stroke="#263238" stroke-width="1.00396" stroke-miterlimit="10"/>
<path d="M104.607 245.997L123.985 260.967L129.008 251.441C129.008 251.441 132.479 248.515 132.988 246.31C133.496 244.106 132.848 240.526 133.369 238.322C133.89 236.117 136.484 234.049 136.726 228.714C136.967 223.379 136.726 218.929 136.726 218.929C136.726 218.929 140.922 200.462 140.464 192.433C140.006 184.404 132.771 170.21 126.973 169.897C121.175 169.584 113.635 170.523 107.786 179.995C101.937 189.466 103.133 217.119 102.217 218.848C101.302 220.576 102.573 229.109 102.573 229.109C102.065 229.514 101.643 230.031 101.336 230.625C101.029 231.219 100.844 231.875 100.793 232.552C100.691 234.77 102.929 240.227 102.929 240.227L104.607 245.997Z" fill="white" stroke="#263238" stroke-width="1.00396" stroke-miterlimit="10"/>
<g style="mix-blend-mode:multiply">
<path d="M102.725 211.744C102.765 214.119 102.599 216.492 102.23 218.834C101.416 220.386 102.344 227.394 102.547 228.823C113.447 232.446 124.972 233.377 136.255 231.545C136.498 230.598 136.643 229.626 136.688 228.646C136.942 223.325 136.688 218.862 136.688 218.862C136.688 218.862 137.056 217.215 137.565 214.711C125.879 215.506 114.147 214.507 102.725 211.744Z" fill="#92E3A9"/>
</g>
<g style="mix-blend-mode:multiply">
<path d="M106.998 181.505C105.179 185.411 104.162 191.276 103.577 197.223C115.12 201.938 127.565 203.56 139.828 201.946C140.317 198.798 140.534 195.61 140.476 192.42C140.256 189.898 139.7 187.423 138.823 185.071C128.116 185.338 117.421 184.14 106.998 181.505Z" fill="#92E3A9"/>
</g>
<path d="M102.929 240.377L104.569 245.997L123.947 260.967L128.969 251.441C128.969 251.441 132.44 248.515 132.949 246.31C133.04 245.927 133.095 245.535 133.114 245.14C122.903 244.951 112.757 243.35 102.929 240.377Z" fill="#263238"/>
<path d="M116.953 509.341C116.953 509.341 117.386 497.555 119.496 480.327C121.607 463.098 116.534 438.629 115.682 434.547C114.83 430.464 116.114 421.401 115.262 418.216C114.41 415.032 110.291 401.45 112.719 385.691C115.148 369.932 117.119 328.276 117.119 328.276C117.119 328.276 111.003 322.955 109.21 316.028C107.417 309.101 108.79 306.924 108.79 306.924" stroke="#263238" stroke-width="1.00396" stroke-miterlimit="10"/>
<path d="M119.789 307.563L117.437 321.499" stroke="#263238" stroke-width="1.00396" stroke-miterlimit="10"/>
</svg>
