<svg width="46" height="46" viewBox="0 0 46 46" fill="none" xmlns="http://www.w3.org/2000/svg">
<path d="M17.2501 3.83325H34.5001C36.6084 3.83325 38.3334 5.55825 38.3334 7.66659V38.3333C38.3334 40.4416 36.6084 42.1666 34.5001 42.1666H17.2501C15.1417 42.1666 13.4167 40.4416 13.4167 38.3333V36.4166C13.4167 35.9083 13.6187 35.4207 13.9781 35.0613C14.3376 34.7019 14.8251 34.4999 15.3334 34.4999C15.8417 34.4999 16.3293 34.7019 16.6887 35.0613C17.0481 35.4207 17.2501 35.9083 17.2501 36.4166V38.3333H34.5001V7.66659H17.2501V9.58325C17.2501 10.0916 17.0481 10.5791 16.6887 10.9385C16.3293 11.298 15.8417 11.4999 15.3334 11.4999C14.8251 11.4999 14.3376 11.298 13.9781 10.9385C13.6187 10.5791 13.4167 10.0916 13.4167 9.58325V7.66659C13.4167 5.55825 15.1417 3.83325 17.2501 3.83325Z" fill="white"/>
<path d="M20.6904 31.2321C21.4379 31.9796 22.6454 31.9796 23.3929 31.2321L30.2699 24.3551C30.6292 23.9957 30.8311 23.5082 30.8311 23C30.8311 22.4918 30.6292 22.0043 30.2699 21.6449L23.3929 14.7679C23.0286 14.4386 22.5516 14.2619 22.0607 14.2743C21.5698 14.2867 21.1023 14.4872 20.7551 14.8345C20.4078 15.1818 20.2073 15.6492 20.1949 16.1401C20.1825 16.6311 20.3592 17.108 20.6885 17.4723L24.2842 21.0833H7.66667C7.15834 21.0833 6.67082 21.2853 6.31138 21.6447C5.95193 22.0042 5.75 22.4917 5.75 23C5.75 23.5083 5.95193 23.9958 6.31138 24.3553C6.67082 24.7147 7.15834 24.9167 7.66667 24.9167H24.2842L20.6885 28.5277C20.3307 28.8869 20.13 29.3733 20.1304 29.8803C20.1307 30.3872 20.3321 30.8734 20.6904 31.2321Z" fill="white"/>
</svg>
