<svg width="120" height="55" viewBox="0 0 120 55" fill="none" xmlns="http://www.w3.org/2000/svg">
<path d="M27.1318 12.8662C27.6078 12.9821 28.0838 13.098 28.5599 13.156C28.8999 13.2139 29.1719 13.2139 29.512 13.2139H30.056C30.5321 13.2139 31.0081 13.098 31.4161 13.04C31.8242 12.9241 32.3002 12.8082 32.7083 12.6344C33.1163 12.4605 33.3203 11.9968 33.1163 11.6491C32.9123 11.3014 32.3682 11.1275 31.9602 11.3014C31.6882 11.4173 31.3481 11.5332 31.0081 11.5911C30.6681 11.6491 30.328 11.7071 29.92 11.765H28.7639C28.3559 11.7071 28.0158 11.6491 27.6078 11.5332C27.1318 11.4173 26.6557 11.6491 26.5197 11.9968C26.3837 12.2866 26.6557 12.7503 27.1318 12.8662ZM23.3914 21.5595C24.4115 21.5595 25.2276 20.8641 25.2276 19.9947C25.2276 19.1254 24.4115 18.4299 23.3914 18.4299C22.3713 18.4299 21.5553 19.1254 21.5553 19.9947C21.5553 20.8641 22.3713 21.5595 23.3914 21.5595ZM43.8613 29.7313C42.2971 32.8609 36.6526 34.9473 29.308 34.9473C28.6959 34.9473 28.2199 34.5416 28.2199 34.02C28.2199 33.4984 28.6959 33.0927 29.308 33.0927C37.3327 33.0927 42.0931 30.4847 42.0931 27.9347C42.0931 27.4131 42.0931 26.9494 41.7531 26.4278C40.1209 25.0948 36.8566 24.0516 34.0004 23.588C34.0004 21.8493 32.0962 20.4004 30.056 20.4004C28.0158 20.4004 26.2477 21.7334 26.1797 23.4141C20.5352 23.9357 16.4548 25.8483 15.5707 28.2824H15.5027V28.3983C12.2384 34.02 7.00194 42.1918 7.06995 43.5827C7.13795 44.9736 8.7701 46.0169 12.8505 47.8714C17.5429 50.0158 23.5954 51.2329 29.444 51.2329C35.2245 51.2329 41.209 50.0158 45.9015 47.8714C49.9138 46.0748 51.614 44.568 51.614 43.6407C51.546 42.7134 47.1936 35.353 43.8613 29.7313ZM27.8118 17.039C27.8118 17.7345 28.4919 18.372 29.376 18.372C30.192 18.372 30.9401 17.7924 30.9401 17.039C30.9401 16.2856 30.26 15.706 29.376 15.706C28.4919 15.706 27.8118 16.2856 27.8118 17.039ZM44.1333 22.7186C40.869 17.5026 36.8566 11.6491 36.8566 10.6639V4.11486C36.8566 1.79663 33.5243 0 29.308 0C25.0916 0 21.7593 1.79663 21.7593 4.11486V10.6639C21.7593 11.7071 17.7469 17.5606 14.4826 22.7186C6.04986 36.0485 2.58154 41.902 2.58154 43.4668C2.58154 46.0169 5.64182 48.9146 10.7423 51.2329C16.1148 53.667 22.7114 55 29.376 55C35.9726 55 42.6372 53.667 48.0096 51.1749C53.1101 48.8567 56.1704 45.9589 56.1704 43.4668C56.0344 41.902 52.5661 36.0485 44.1333 22.7186ZM29.308 2.02845C32.2322 2.02845 34.3404 3.07165 34.3404 4.0569C34.3404 5.04215 32.1642 6.08535 29.308 6.08535C26.3837 6.08535 24.2755 4.98419 24.2755 4.0569C24.2755 3.12961 26.3837 2.02845 29.308 2.02845ZM46.7855 49.3783C43.8613 50.7113 37.7407 52.9136 29.308 52.9136C15.2987 52.9136 5.02976 46.7123 5.02976 43.4668C5.16578 41.902 11.8984 30.9484 16.4548 23.7039C22.9154 13.4457 23.8675 11.4752 23.8675 10.7218V7.12856C25.2956 7.76607 27.2678 8.17176 29.2399 8.17176C31.2121 8.17176 33.1843 7.76607 34.6124 7.12856V10.7218C34.6124 11.4752 35.5645 13.4457 42.0251 23.7039C46.5815 30.9484 53.3821 41.902 53.5861 43.4668C53.6541 44.8577 51.478 47.2339 46.7855 49.3783Z" fill="#37C876"/>
<path d="M66.9131 38.4171V20.0081H61.5186V43.6094H75.3422V38.4171H66.9131ZM93.3803 43.6094H99.2806L91.2561 20.0081H84.3781L76.3536 43.6094H82.254L83.434 39.9006H92.2002L93.3803 43.6094ZM85.0524 34.8432L87.8171 26.1782L90.5818 34.8432H85.0524ZM115.926 31.3704C117.207 30.2578 117.982 28.7069 117.982 26.7513C117.982 22.6717 114.645 20.0081 110.531 20.0081H101.293V43.6094H111.206C115.42 43.6094 118.825 40.8784 118.825 36.6976C118.825 34.3037 117.679 32.4831 115.926 31.3704ZM110.531 25.0655C111.779 25.0655 112.588 25.9422 112.588 27.1559C112.588 28.3697 111.745 29.2463 110.531 29.2463H106.688V25.0655H110.531ZM111.206 38.552H106.688V34.034H111.206C112.554 34.034 113.431 34.9781 113.431 36.293C113.431 37.6079 112.554 38.552 111.206 38.552Z" fill="#37C876"/>
</svg>
