<svg width="227" height="26" viewBox="0 0 227 26" fill="none" xmlns="http://www.w3.org/2000/svg">
<path d="M5.02474 5.75215H10.0495C10.739 5.75215 11.3834 5.88047 11.9918 6.1371C12.6002 6.39817 13.1319 6.74772 13.5871 7.19463C14.0422 7.64153 14.3982 8.16807 14.6596 8.76984C14.9255 9.37161 15.0562 10.0088 15.0562 10.6858C15.0562 11.3628 14.9255 11.9999 14.6596 12.6017C14.3982 13.2035 14.0422 13.73 13.5871 14.1769C13.1319 14.6238 12.6002 14.9734 11.9918 15.23C11.3834 15.4911 10.739 15.6194 10.0495 15.6194H5.02474V5.75215ZM5.02474 25.4689V20.5353H10.0495C11.424 20.5353 12.7263 20.2787 13.9431 19.761C15.1643 19.2477 16.2279 18.5397 17.1382 17.6459C18.0485 16.7521 18.765 15.7079 19.2923 14.5088C19.8196 13.3141 20.0809 12.0353 20.0809 10.6858C20.0809 9.77869 19.9593 8.90701 19.7204 8.07073C19.4816 7.23445 19.1436 6.45126 18.7065 5.71675C18.2693 4.98224 17.7421 4.3141 17.1292 3.71233C16.5163 3.11056 15.8403 2.59728 15.1013 2.16808C14.3577 1.73888 13.56 1.40702 12.7083 1.16808C11.8566 0.933568 10.9688 0.818524 10.0495 0.818524H0V25.4689H5.02474ZM31.6311 5.75215H36.6558C37.3453 5.75215 37.9942 5.88047 38.5981 6.1371C39.2065 6.39817 39.7383 6.74772 40.1934 7.19463C40.6486 7.64153 41.0091 8.16807 41.2705 8.76984C41.5318 9.37161 41.6625 10.0088 41.6625 10.6858C41.6625 11.3628 41.5318 11.9999 41.2705 12.6017C41.0091 13.2035 40.6486 13.73 40.1934 14.1769C39.7383 14.6238 39.2065 14.9734 38.5981 15.23C37.9942 15.4911 37.3453 15.6194 36.6558 15.6194H31.6311V5.75215ZM31.6311 25.4689V20.5353L37.2507 20.4999L39.4408 25.4689H44.781L41.996 19.0221C42.7216 18.5751 43.375 18.0486 43.9563 17.4424C44.5422 16.8318 45.0334 16.1681 45.439 15.4468C45.84 14.7256 46.151 13.9645 46.3673 13.1592C46.5791 12.3583 46.6873 11.5353 46.6873 10.6858C46.6873 9.77869 46.5701 8.90701 46.3313 8.07073C46.0924 7.23445 45.7544 6.45126 45.3128 5.71675C44.8757 4.98224 44.3529 4.3141 43.74 3.71233C43.1271 3.11056 42.4512 2.59728 41.7076 2.16808C40.9685 1.73888 40.1709 1.40702 39.3191 1.16808C38.4674 0.933568 37.5796 0.818524 36.6558 0.818524H26.6063V25.4689H31.6311ZM78.1651 13.2477C78.1651 12.0796 78.0119 10.9468 77.701 9.85834C77.39 8.76985 76.9574 7.75657 76.3986 6.81852C75.8353 5.87604 75.1593 5.01764 74.3661 4.23887C73.573 3.46011 72.6987 2.7964 71.7389 2.2433C70.7835 1.69463 69.7515 1.26543 68.6384 0.96454C67.5298 0.659231 66.3806 0.508789 65.1909 0.508789C64.0012 0.508789 62.8521 0.659231 61.7525 0.96454C60.6484 1.26543 59.6164 1.69463 58.652 2.2433C57.6876 2.7964 56.8088 3.46011 56.0157 4.23887C55.2226 5.01764 54.5421 5.87604 53.9788 6.81852C53.411 7.75657 52.9738 8.76985 52.6629 9.85834C52.3564 10.9468 52.1987 12.0796 52.1987 13.2477C52.1987 14.4159 52.3564 15.5398 52.6629 16.6238C52.9738 17.7079 53.411 18.7212 53.9788 19.6681C54.5421 20.6105 55.2226 21.4734 56.0157 22.2521C56.8088 23.0353 57.6876 23.699 58.652 24.2566C59.6164 24.8141 60.6484 25.2433 61.7525 25.5442C62.8521 25.8495 64.0012 25.9999 65.1909 25.9999C66.3806 25.9999 67.5298 25.8495 68.6384 25.5442C69.7515 25.2433 70.7835 24.8141 71.7389 24.2566C72.6987 23.699 73.573 23.0353 74.3661 22.2521C75.1593 21.4734 75.8353 20.6105 76.3986 19.6681C76.9574 18.7212 77.39 17.7079 77.701 16.6238C78.0119 15.5398 78.1651 14.4159 78.1651 13.2477ZM73.1764 13.2477C73.1764 14.3229 72.9646 15.3362 72.5455 16.2787C72.1264 17.2256 71.5541 18.053 70.8376 18.7654C70.121 19.4734 69.2738 20.0353 68.3004 20.4513C67.3225 20.8628 66.2905 21.0663 65.1909 21.0663C64.0823 21.0663 63.0458 20.8628 62.0769 20.4513C61.108 20.0353 60.2608 19.4734 59.5353 18.7654C58.8142 18.053 58.2419 17.2256 57.8228 16.2787C57.3992 15.3362 57.1919 14.3229 57.1919 13.2477C57.1919 12.1681 57.3992 11.1504 57.8228 10.1946C58.2419 9.23887 58.8142 8.40701 59.5353 7.70347C60.2608 6.99993 61.108 6.43799 62.0769 6.02648C63.0458 5.61498 64.0823 5.40702 65.1909 5.40702C66.2905 5.40702 67.3225 5.61498 68.3004 6.02648C69.2738 6.43799 70.121 6.99993 70.8376 7.70347C71.5541 8.40701 72.1264 9.23887 72.5455 10.1946C72.9646 11.1504 73.1764 12.1681 73.1764 13.2477ZM103.794 25.4689L96.0874 13.1415L103.794 0.818524H97.7008L92.8698 8.77869L88.0163 0.818524H81.9596L89.6657 13.1415L81.9596 25.4689H88.0163L92.8698 17.5088L97.7008 25.4689H103.794ZM120.999 25.4689V17.7521C122.108 17.4734 123.126 17.0353 124.046 16.4247C124.97 15.8185 125.763 15.0928 126.425 14.2521C127.092 13.4114 127.61 12.4778 127.975 11.4513C128.345 10.4247 128.53 9.34507 128.53 8.2079V0.818524H123.523V8.2079C123.523 8.88489 123.388 9.52648 123.126 10.1283C122.865 10.73 122.504 11.2521 122.049 11.699C121.594 12.1459 121.062 12.4999 120.45 12.7566C119.837 13.0132 119.183 13.1415 118.498 13.1415C117.809 13.1415 117.155 13.0132 116.542 12.7566C115.93 12.4999 115.398 12.1459 114.943 11.699C114.487 11.2521 114.127 10.73 113.866 10.1283C113.604 9.52648 113.473 8.88489 113.473 8.2079V0.818524H108.449V8.2079C108.449 9.34507 108.629 10.4247 108.999 11.4513C109.368 12.4778 109.882 13.4114 110.549 14.2521C111.211 15.0928 112.009 15.8185 112.937 16.4247C113.866 17.0353 114.884 17.4734 115.993 17.7521V25.4689H120.999Z" fill="black"/>
<path d="M162.868 25.9522V20.758H147.969V0H142.004V25.9522H162.868ZM187.765 15.5825H175.836V10.3883C175.836 9.6756 175.991 9.00478 176.301 8.37123C176.617 7.73768 177.039 7.18333 177.58 6.71282C178.12 6.24232 178.757 5.8743 179.484 5.59946C180.212 5.32927 180.982 5.19417 181.801 5.19417C182.619 5.19417 183.389 5.32927 184.117 5.59946C184.844 5.8743 185.476 6.24232 186.016 6.71282C186.562 7.18333 186.984 7.73768 187.295 8.37123C187.61 9.00478 187.765 9.6756 187.765 10.3883V15.5825ZM193.73 25.9522V10.3883C193.73 8.95354 193.42 7.60259 192.794 6.34481C192.168 5.08237 191.318 3.98297 190.237 3.04197C189.156 2.0963 187.894 1.35561 186.444 0.815228C184.994 0.27019 183.448 0 181.801 0C180.153 0 178.601 0.27019 177.157 0.815228C175.707 1.35561 174.445 2.0963 173.369 3.04197C172.3 3.98297 171.449 5.08237 170.828 6.34481C170.202 7.60259 169.892 8.95354 169.892 10.3883V25.9522H175.836V20.758H187.765V25.9522H193.73ZM227 18.1679C227 17.6881 226.925 17.1897 226.78 16.6772C226.636 16.1648 226.427 15.671 226.149 15.2005C225.871 14.73 225.539 14.3014 225.149 13.9055C224.764 13.5142 224.325 13.2067 223.844 12.9738C224.314 12.7222 224.742 12.4008 225.127 12.0188C225.518 11.6321 225.85 11.2036 226.128 10.7331C226.406 10.2626 226.62 9.77342 226.77 9.26565C226.925 8.75788 227 8.26409 227 7.77961C227 6.70817 226.764 5.70194 226.294 4.76093C225.823 3.81993 225.181 2.99538 224.373 2.2873C223.56 1.58387 222.613 1.02486 221.532 0.614915C220.452 0.204972 219.296 0 218.061 0H203.162V25.9522H218.061C219.296 25.9522 220.452 25.7472 221.532 25.3373C222.613 24.9274 223.56 24.3683 224.373 23.6649C225.181 22.9568 225.823 22.1323 226.294 21.1913C226.764 20.2503 227 19.2441 227 18.1679ZM209.127 20.758V15.5825H218.061C218.478 15.5825 218.868 15.6477 219.227 15.7828C219.585 15.9133 219.901 16.0996 220.174 16.3325C220.441 16.5701 220.655 16.8449 220.805 17.1571C220.96 17.4692 221.035 17.8092 221.035 18.1679C221.035 18.5313 220.96 18.8714 220.805 19.1835C220.655 19.4956 220.441 19.7705 220.174 20.008C219.901 20.241 219.585 20.4273 219.227 20.5577C218.868 20.6928 218.478 20.758 218.061 20.758H209.127ZM209.127 10.3883V5.19417H218.061C218.478 5.19417 218.868 5.25939 219.227 5.39448C219.585 5.52492 219.901 5.71126 220.174 5.94418C220.441 6.18176 220.655 6.45195 220.805 6.76872C220.96 7.08084 221.035 7.42091 221.035 7.77961C221.035 8.14297 220.96 8.48303 220.805 8.80447C220.655 9.1259 220.441 9.40075 220.174 9.63833C219.901 9.87125 219.585 10.0576 219.227 10.188C218.868 10.3231 218.478 10.3883 218.061 10.3883H209.127Z" fill="black"/>
</svg>
