<svg width="318" height="38" viewBox="0 0 318 38" fill="none" xmlns="http://www.w3.org/2000/svg">
<path d="M7.03906 8.40714H14.0781C15.044 8.40714 15.9468 8.59469 16.7991 8.96977C17.6513 9.35133 18.3963 9.86222 19.0339 10.5154C19.6715 11.1685 20.1702 11.9381 20.5364 12.8176C20.9089 13.6971 21.0919 14.6284 21.0919 15.6178C21.0919 16.6073 20.9089 17.5385 20.5364 18.418C20.1702 19.2975 19.6715 20.0671 19.0339 20.7203C18.3963 21.3734 17.6513 21.8843 16.7991 22.2594C15.9468 22.641 15.044 22.8285 14.0781 22.8285H7.03906V8.40714ZM7.03906 37.224V30.0133H14.0781C16.0036 30.0133 17.8281 29.6382 19.5326 28.8816C21.2434 28.1314 22.7333 27.0967 24.0086 25.7904C25.2838 24.4841 26.2876 22.9578 27.0262 21.2053C27.7648 19.4592 28.131 17.5903 28.131 15.6178C28.131 14.2921 27.9605 13.0181 27.626 11.7958C27.2914 10.5736 26.8179 9.42893 26.2055 8.35541C25.5931 7.28189 24.8545 6.30538 23.9959 5.42587C23.1374 4.54636 22.1904 3.79619 21.1551 3.16889C20.1134 2.54159 18.996 2.05657 17.8028 1.70736C16.6097 1.36461 15.366 1.19646 14.0781 1.19646H0V37.224H7.03906ZM44.3114 8.40714H51.3504C52.3163 8.40714 53.2254 8.59469 54.0714 8.96977C54.9236 9.35133 55.6686 9.86222 56.3062 10.5154C56.9438 11.1685 57.4489 11.9381 57.815 12.8176C58.1812 13.6971 58.3642 14.6284 58.3642 15.6178C58.3642 16.6073 58.1812 17.5385 57.815 18.418C57.4489 19.2975 56.9438 20.0671 56.3062 20.7203C55.6686 21.3734 54.9236 21.8843 54.0714 22.2594C53.2254 22.641 52.3163 22.8285 51.3504 22.8285H44.3114V8.40714ZM44.3114 37.224V30.0133L52.1838 29.9616L55.2519 37.224H62.7329L58.8314 27.8016C59.8478 27.1485 60.7632 26.3789 61.5776 25.4929C62.3983 24.6005 63.0864 23.6304 63.6546 22.5763C64.2165 21.5222 64.6521 20.4099 64.9551 19.2329C65.2518 18.0623 65.4033 16.8595 65.4033 15.6178C65.4033 14.2921 65.2392 13.0181 64.9046 11.7958C64.57 10.5736 64.0965 9.42893 63.4778 8.35541C62.8655 7.28189 62.1331 6.30538 61.2746 5.42587C60.416 4.54636 59.469 3.79619 58.4274 3.16889C57.392 2.54159 56.2746 2.05657 55.0815 1.70736C53.8883 1.36461 52.6446 1.19646 51.3504 1.19646H37.2723V37.224H44.3114ZM109.5 19.3622C109.5 17.6549 109.285 15.9994 108.85 14.4085C108.414 12.8176 107.808 11.3367 107.025 9.96569C106.236 8.58822 105.289 7.33363 104.178 6.19544C103.067 5.05725 101.842 4.0872 100.498 3.27883C99.1592 2.47692 97.7135 1.84963 96.1542 1.40987C94.6012 0.963651 92.9914 0.743774 91.3247 0.743774C89.6581 0.743774 88.0483 0.963651 86.5079 1.40987C84.9612 1.84963 83.5155 2.47692 82.1645 3.27883C80.8135 4.0872 79.5824 5.05725 78.4713 6.19544C77.3602 7.33363 76.407 8.58822 75.6178 9.96569C74.8224 11.3367 74.21 12.8176 73.7744 14.4085C73.3451 15.9994 73.1242 17.6549 73.1242 19.3622C73.1242 21.0695 73.3451 22.7121 73.7744 24.2965C74.21 25.8809 74.8224 27.3619 75.6178 28.7458C76.407 30.1233 77.3602 31.3843 78.4713 32.5225C79.5824 33.6672 80.8135 34.6372 82.1645 35.4521C83.5155 36.2669 84.9612 36.8942 86.5079 37.3339C88.0483 37.7802 89.6581 38 91.3247 38C92.9914 38 94.6012 37.7802 96.1542 37.3339C97.7135 36.8942 99.1592 36.2669 100.498 35.4521C101.842 34.6372 103.067 33.6672 104.178 32.5225C105.289 31.3843 106.236 30.1233 107.025 28.7458C107.808 27.3619 108.414 25.8809 108.85 24.2965C109.285 22.7121 109.5 21.0695 109.5 19.3622ZM102.511 19.3622C102.511 20.9337 102.215 22.4146 101.628 23.7921C101.041 25.176 100.239 26.3854 99.235 27.4265C98.2312 28.4613 97.0444 29.2826 95.6807 29.8905C94.3108 30.4919 92.8651 30.7894 91.3247 30.7894C89.7717 30.7894 88.3197 30.4919 86.9624 29.8905C85.6051 29.2826 84.4182 28.4613 83.4018 27.4265C82.3918 26.3854 81.59 25.176 81.0029 23.7921C80.4094 22.4146 80.1191 20.9337 80.1191 19.3622C80.1191 17.7843 80.4094 16.2969 81.0029 14.9C81.59 13.5031 82.3918 12.2873 83.4018 11.2591C84.4182 10.2308 85.6051 9.40953 86.9624 8.8081C88.3197 8.20667 89.7717 7.90272 91.3247 7.90272C92.8651 7.90272 94.3108 8.20667 95.6807 8.8081C97.0444 9.40953 98.2312 10.2308 99.235 11.2591C100.239 12.2873 101.041 13.5031 101.628 14.9C102.215 16.2969 102.511 17.7843 102.511 19.3622ZM145.402 37.224L134.607 19.207L145.402 1.19646H136.867L130.1 12.8306L123.3 1.19646H114.816L125.611 19.207L114.816 37.224H123.3L130.1 25.5899L136.867 37.224H145.402ZM169.506 37.224V25.9456C171.059 25.5382 172.485 24.8979 173.773 24.0055C175.067 23.1195 176.179 22.0589 177.107 20.8302C178.041 19.6015 178.767 18.237 179.278 16.7366C179.796 15.2363 180.055 13.6583 180.055 11.9963V1.19646H173.041V11.9963C173.041 12.9858 172.852 13.9235 172.485 14.803C172.119 15.6825 171.614 16.4456 170.977 17.0988C170.339 17.7519 169.594 18.2693 168.735 18.6444C167.877 19.0195 166.962 19.207 166.002 19.207C165.036 19.207 164.121 19.0195 163.262 18.6444C162.403 18.2693 161.659 17.7519 161.021 17.0988C160.383 16.4456 159.878 15.6825 159.512 14.803C159.146 13.9235 158.963 12.9858 158.963 11.9963V1.19646H151.924V11.9963C151.924 13.6583 152.176 15.2363 152.694 16.7366C153.212 18.237 153.931 19.6015 154.866 20.8302C155.794 22.0589 156.911 23.1195 158.212 24.0055C159.512 24.8979 160.939 25.5382 162.492 25.9456V37.224H169.506Z" fill="#05B84F"/>
<path d="M228.159 37.9302V30.3387H207.287V0H198.931V37.9302H228.159ZM263.037 22.7744H246.325V15.183C246.325 14.1413 246.542 13.1608 246.977 12.2349C247.419 11.3089 248.011 10.4987 248.768 9.81105C249.525 9.12339 250.417 8.58552 251.436 8.18382C252.455 7.78893 253.534 7.59148 254.681 7.59148C255.828 7.59148 256.907 7.78893 257.926 8.18382C258.945 8.58552 259.83 9.12339 260.587 9.81105C261.351 10.4987 261.943 11.3089 262.378 12.2349C262.82 13.1608 263.037 14.1413 263.037 15.183V22.7744ZM271.393 37.9302V15.183C271.393 13.0859 270.959 11.1115 270.082 9.27318C269.205 7.42807 268.013 5.82127 266.499 4.44595C264.986 3.06382 263.217 1.98127 261.186 1.19149C259.155 0.394893 256.989 0 254.681 0C252.373 0 250.199 0.394893 248.176 1.19149C246.145 1.98127 244.376 3.06382 242.87 4.44595C241.371 5.82127 240.18 7.42807 239.31 9.27318C238.434 11.1115 237.999 13.0859 237.999 15.183V37.9302H246.325V30.3387H263.037V37.9302H271.393ZM318 26.5532C318 25.8519 317.895 25.1234 317.693 24.3744C317.49 23.6255 317.198 22.9038 316.808 22.2161C316.419 21.5285 315.954 20.9021 315.407 20.3234C314.867 19.7515 314.253 19.3021 313.578 18.9617C314.238 18.594 314.837 18.1242 315.377 17.5659C315.924 17.0008 316.389 16.3744 316.778 15.6868C317.168 14.9991 317.468 14.2842 317.678 13.5421C317.895 12.8 318 12.0783 318 11.3702C318 9.80424 317.67 8.3336 317.011 6.95829C316.351 5.58297 315.452 4.37787 314.32 3.34297C313.181 2.31489 311.855 1.49787 310.341 0.898722C308.827 0.299574 307.208 0 305.477 0H284.606V37.9302H305.477C307.208 37.9302 308.827 37.6306 310.341 37.0314C311.855 36.4323 313.181 35.6153 314.32 34.5872C315.452 33.5523 316.351 32.3472 317.011 30.9719C317.67 29.5966 318 28.1259 318 26.5532ZM292.962 30.3387V22.7744H305.477C306.062 22.7744 306.609 22.8698 307.111 23.0672C307.613 23.2578 308.055 23.5302 308.437 23.8706C308.812 24.2178 309.112 24.6195 309.322 25.0757C309.539 25.5319 309.644 26.0289 309.644 26.5532C309.644 27.0842 309.539 27.5812 309.322 28.0374C309.112 28.4936 308.812 28.8953 308.437 29.2425C308.055 29.5829 307.613 29.8553 307.111 30.0459C306.609 30.2434 306.062 30.3387 305.477 30.3387H292.962ZM292.962 15.183V7.59148H305.477C306.062 7.59148 306.609 7.6868 307.111 7.88424C307.613 8.07488 308.055 8.34722 308.437 8.68765C308.812 9.03488 309.112 9.42977 309.322 9.89275C309.539 10.3489 309.644 10.8459 309.644 11.3702C309.644 11.9013 309.539 12.3983 309.322 12.8681C309.112 13.3379 308.812 13.7396 308.437 14.0868C308.055 14.4272 307.613 14.6996 307.111 14.8902C306.609 15.0876 306.062 15.183 305.477 15.183H292.962Z" fill="#43FA8E"/>
</svg>
