<svg width="119" height="64" viewBox="0 0 119 64" fill="none" xmlns="http://www.w3.org/2000/svg">
<path d="M26.9057 14.9715C27.3778 15.1064 27.8498 15.2413 28.3219 15.3087C28.6591 15.3762 28.9289 15.3762 29.2661 15.3762H29.8056C30.2777 15.3762 30.7497 15.2413 31.1544 15.1739C31.559 15.039 32.0311 14.9041 32.4357 14.7018C32.8404 14.4995 33.0427 13.96 32.8404 13.5553C32.638 13.1507 32.0985 12.9484 31.6939 13.1507C31.4241 13.2856 31.0869 13.4204 30.7497 13.4879C30.4125 13.5553 30.0753 13.6228 29.6707 13.6902H28.5242C28.1196 13.6228 27.7824 13.5553 27.3778 13.4204C26.9057 13.2856 26.4336 13.5553 26.2987 13.96C26.1639 14.2972 26.4336 14.8367 26.9057 14.9715ZM23.1965 25.0875C24.2081 25.0875 25.0174 24.2782 25.0174 23.2666C25.0174 22.255 24.2081 21.4457 23.1965 21.4457C22.1849 21.4457 21.3757 22.255 21.3757 23.2666C21.3757 24.2782 22.1849 25.0875 23.1965 25.0875ZM43.4958 34.5964C41.9447 38.2381 36.3472 40.666 29.0637 40.666C28.4568 40.666 27.9847 40.1939 27.9847 39.5869C27.9847 38.98 28.4568 38.5079 29.0637 38.5079C37.0216 38.5079 41.7424 35.4731 41.7424 32.5058C41.7424 31.8988 41.7424 31.3593 41.4052 30.7524C39.7866 29.2013 36.5495 27.9874 33.7171 27.4478C33.7171 25.4247 31.8288 23.7387 29.8056 23.7387C27.7824 23.7387 26.029 25.2898 25.9615 27.2455C20.3641 27.8525 16.3177 30.078 15.441 32.9104H15.3735V33.0453C12.1365 39.5869 6.94362 49.0959 7.01106 50.7144C7.0785 52.333 8.69704 53.5469 12.7434 55.7049C17.3967 58.2002 23.3988 59.6164 29.1986 59.6164C34.931 59.6164 40.8656 58.2002 45.519 55.7049C49.4979 53.6143 51.1839 51.8609 51.1839 50.7819C51.1164 49.7028 46.8003 41.138 43.4958 34.5964ZM27.5801 19.8272C27.5801 20.6365 28.2545 21.3783 29.1312 21.3783C29.9405 21.3783 30.6823 20.7039 30.6823 19.8272C30.6823 18.9505 30.0079 18.2761 29.1312 18.2761C28.2545 18.2761 27.5801 18.9505 27.5801 19.8272ZM43.7655 26.4362C40.5285 20.3667 36.5495 13.5553 36.5495 12.4089V4.7882C36.5495 2.09062 33.245 0 29.0637 0C24.8825 0 21.578 2.09062 21.578 4.7882V12.4089C21.578 13.6228 17.599 20.4341 14.362 26.4362C5.99947 41.9473 2.56006 48.7587 2.56006 50.5796C2.56006 53.5469 5.59483 56.9189 10.6528 59.6164C15.9805 62.4489 22.5221 64 29.1312 64C35.6728 64 42.2819 62.4489 47.6096 59.549C52.6675 56.8514 55.7023 53.4795 55.7023 50.5796C55.5674 48.7587 52.128 41.9473 43.7655 26.4362ZM29.0637 2.36038C31.9636 2.36038 34.0543 3.57429 34.0543 4.72076C34.0543 5.86723 31.8962 7.08114 29.0637 7.08114C26.1639 7.08114 24.0732 5.79979 24.0732 4.72076C24.0732 3.64173 26.1639 2.36038 29.0637 2.36038ZM46.3957 57.4584C43.4958 59.0095 37.4262 61.5722 29.0637 61.5722C15.1712 61.5722 4.98788 54.3562 4.98788 50.5796C5.12276 48.7587 11.7993 36.0126 16.3177 27.5827C22.7244 15.6459 23.6686 13.353 23.6686 12.4763V8.29505C25.0848 9.03688 27.0406 9.50896 28.9963 9.50896C30.9521 9.50896 32.9078 9.03688 34.324 8.29505V12.4763C34.324 13.353 35.2682 15.6459 41.6749 27.5827C46.1934 36.0126 52.9373 48.7587 53.1396 50.5796C53.2071 52.1981 51.049 54.9631 46.3957 57.4584Z" fill="black"/>
<path d="M66.4175 40.8077V22.3988H61.023V46H74.8466V40.8077H66.4175ZM92.8846 46H98.785L90.7605 22.3988H83.8825L75.858 46H81.7583L82.9384 42.2912H91.7046L92.8846 46ZM84.5568 37.2338L87.3215 28.5688L90.0862 37.2338H84.5568ZM115.43 33.7611C116.711 32.6484 117.487 31.0975 117.487 29.142C117.487 25.0623 114.149 22.3988 110.036 22.3988H100.797V46H110.71C114.924 46 118.33 43.269 118.33 39.0882C118.33 36.6944 117.183 34.8737 115.43 33.7611ZM110.036 27.4562C111.283 27.4562 112.092 28.3328 112.092 29.5466C112.092 30.7603 111.249 31.637 110.036 31.637H106.192V27.4562H110.036ZM110.71 40.9426H106.192V36.4246H110.71C112.059 36.4246 112.935 37.3687 112.935 38.6836C112.935 39.9985 112.059 40.9426 110.71 40.9426Z" fill="black"/>
</svg>
