<svg width="46" height="46" viewBox="0 0 46 46" fill="none" xmlns="http://www.w3.org/2000/svg">
<path d="M28.7498 7.66675C26.7165 7.66675 24.7665 8.47448 23.3287 9.91226C21.8909 11.35 21.0832 13.3001 21.0832 15.3334C21.0832 17.3667 21.8909 19.3168 23.3287 20.7546C24.7665 22.1923 26.7165 23.0001 28.7498 23.0001C30.7832 23.0001 32.7332 22.1923 34.171 20.7546C35.6088 19.3168 36.4165 17.3667 36.4165 15.3334C36.4165 13.3001 35.6088 11.35 34.171 9.91226C32.7332 8.47448 30.7832 7.66675 28.7498 7.66675ZM28.7498 11.3084C29.2784 11.3084 29.8018 11.4125 30.2901 11.6148C30.7785 11.8171 31.2222 12.1136 31.5959 12.4873C31.9697 12.8611 32.2662 13.3048 32.4685 13.7931C32.6707 14.2814 32.7748 14.8048 32.7748 15.3334C32.7748 15.862 32.6707 16.3854 32.4685 16.8737C32.2662 17.3621 31.9697 17.8058 31.5959 18.1795C31.2222 18.5533 30.7785 18.8498 30.2901 19.052C29.8018 19.2543 29.2784 19.3584 28.7498 19.3584C28.2213 19.3584 27.6979 19.2543 27.2095 19.052C26.7212 18.8498 26.2775 18.5533 25.9037 18.1795C25.53 17.8058 25.2335 17.3621 25.0312 16.8737C24.8289 16.3854 24.7248 15.862 24.7248 15.3334C24.7248 14.2659 25.1489 13.2421 25.9037 12.4873C26.6586 11.7325 27.6823 11.3084 28.7498 11.3084ZM7.6665 13.4167V19.1667H1.9165V23.0001H7.6665V28.7501H11.4998V23.0001H17.2498V19.1667H11.4998V13.4167H7.6665ZM28.7498 24.9167C23.6323 24.9167 13.4165 27.4659 13.4165 32.5834V38.3334H44.0832V32.5834C44.0832 27.4659 33.8673 24.9167 28.7498 24.9167ZM28.7498 28.5584C34.4423 28.5584 40.4415 31.3567 40.4415 32.5834V34.6917H17.0582V32.5834C17.0582 31.3567 22.9998 28.5584 28.7498 28.5584Z" fill="white"/>
</svg>
